<svg xmlns="http://www.w3.org/2000/svg" xmlns:xlink="http://www.w3.org/1999/xlink" width="512" zoomAndPan="magnify" viewBox="0 0 384 122.249994" height="163" preserveAspectRatio="xMidYMid meet" version="1.0"><defs><g/><clipPath id="07c65d702b"><path d="M 1.171875 23 L 380 23 L 380 94 L 1.171875 94 Z M 1.171875 23 " clip-rule="nonzero"/></clipPath><clipPath id="f4da3a2fba"><path d="M 0.648438 5 L 78.875 5 L 78.875 70.984375 L 0.648438 70.984375 Z M 0.648438 5 " clip-rule="nonzero"/></clipPath><clipPath id="1e8180195e"><path d="M 169 57 L 179 57 L 179 70.984375 L 169 70.984375 Z M 169 57 " clip-rule="nonzero"/></clipPath><clipPath id="048d0711a2"><rect x="0" width="379" y="0" height="71"/></clipPath></defs><g clip-path="url(#07c65d702b)"><g transform="matrix(1, 0, 0, 1, 1, 23)"><g clip-path="url(#048d0711a2)"><g clip-path="url(#f4da3a2fba)"><path fill="#000000" d="M 64.925781 34.070312 C 64.925781 34.085938 64.945312 34.101562 64.960938 34.117188 C 65.445312 35.007812 65.507812 35.945312 65.445312 36.882812 C 65.363281 37.917969 65.136719 38.949219 65.089844 39.96875 C 64.960938 42.117188 65.332031 44.234375 65.636719 46.367188 C 65.929688 48.402344 66.171875 50.457031 65.832031 52.507812 C 65.71875 53.203125 65.523438 53.882812 65.21875 54.433594 C 64.960938 54.917969 64.605469 55.289062 64.136719 55.449219 C 63.730469 55.578125 63.230469 55.546875 62.632812 55.304688 C 59.253906 53.929688 58.058594 50.277344 57.285156 46.335938 C 56.460938 42.167969 56.136719 37.65625 54.585938 34.78125 C 53.066406 31.96875 50.980469 29.285156 48.089844 27.765625 C 46.730469 27.054688 45.019531 26.554688 43.5 25.8125 C 42.109375 25.132812 40.882812 24.261719 40.378906 22.742188 C 40.21875 22.273438 40.21875 21.902344 40.332031 21.59375 C 40.507812 21.15625 40.976562 20.933594 41.511719 20.800781 C 42.578125 20.542969 43.953125 20.722656 44.726562 21.09375 C 47.605469 22.433594 49.964844 24.957031 52.726562 26.554688 C 54.925781 27.832031 57.527344 28.445312 59.851562 29.398438 C 62.003906 30.320312 63.925781 31.53125 64.925781 34.070312 Z M 65.816406 33.683594 C 64.71875 30.886719 62.617188 29.511719 60.191406 28.511719 C 57.914062 27.574219 55.34375 26.976562 53.179688 25.714844 C 50.398438 24.097656 48.007812 21.546875 45.097656 20.203125 C 44.160156 19.769531 42.511719 19.542969 41.253906 19.847656 C 40.394531 20.058594 39.703125 20.511719 39.410156 21.207031 C 39.214844 21.675781 39.183594 22.273438 39.425781 23.015625 C 40.007812 24.792969 41.414062 25.859375 43.03125 26.652344 C 44.535156 27.378906 46.246094 27.878906 47.585938 28.589844 C 50.320312 30.03125 52.257812 32.566406 53.679688 35.21875 C 54.570312 36.882812 55.039062 39.113281 55.441406 41.503906 C 55.863281 43.960938 56.199219 46.59375 56.863281 48.9375 C 57.769531 52.21875 59.269531 54.964844 62.230469 56.160156 C 63.085938 56.515625 63.796875 56.53125 64.394531 56.339844 C 64.960938 56.160156 65.429688 55.773438 65.785156 55.257812 C 66.269531 54.5625 66.574219 53.625 66.753906 52.636719 C 67.125 50.472656 66.882812 48.324219 66.574219 46.191406 C 66.285156 44.136719 65.914062 42.070312 66.042969 40 C 66.105469 39 66.332031 37.964844 66.398438 36.929688 C 66.480469 35.847656 66.382812 34.75 65.816406 33.683594 Z M 36.324219 15.679688 C 36.371094 15.679688 36.421875 15.664062 36.453125 15.632812 C 37.359375 15.113281 38.328125 14.675781 39.378906 14.5 C 42.964844 13.871094 45.261719 15.308594 47.3125 17.230469 C 49.476562 19.265625 51.402344 21.835938 54.179688 23.339844 C 56.6875 24.695312 58.65625 24.90625 60.582031 24.890625 C 62.40625 24.875 64.199219 24.648438 66.398438 25.101562 C 68.675781 25.570312 70.179688 26.441406 71.085938 27.621094 C 72.457031 29.398438 72.507812 31.839844 72.070312 34.457031 C 71.292969 39.046875 68.984375 44.1875 68.871094 47.613281 C 68.789062 49.90625 69.066406 52.71875 68.757812 55.320312 C 68.484375 57.808594 67.691406 60.105469 65.492188 61.476562 C 64.570312 62.058594 63.539062 62.558594 62.472656 62.851562 C 60.773438 63.335938 59.382812 63.207031 58.238281 62.640625 C 57.074219 62.074219 56.167969 61.058594 55.441406 59.796875 C 53.164062 55.871094 52.695312 49.601562 52.386719 46.335938 C 52.226562 44.71875 52.0625 43.070312 51.660156 41.488281 C 51.109375 39.289062 50.414062 37.09375 49.105469 35.234375 C 47.183594 32.484375 44.613281 30.289062 41.59375 28.851562 C 40.414062 28.300781 38.992188 27.816406 37.648438 27.1875 C 36.386719 26.585938 35.207031 25.859375 34.496094 24.746094 C 33.511719 23.226562 32.914062 20.480469 33.511719 18.363281 C 33.882812 17.039062 34.738281 15.953125 36.324219 15.679688 Z M 36.113281 14.886719 C 34.222656 15.242188 33.171875 16.535156 32.71875 18.152344 C 32.074219 20.496094 32.71875 23.535156 33.820312 25.214844 C 34.609375 26.441406 35.902344 27.265625 37.308594 27.945312 C 38.636719 28.574219 40.074219 29.058594 41.253906 29.609375 C 44.144531 30.984375 46.617188 33.085938 48.445312 35.71875 C 49.6875 37.496094 50.351562 39.613281 50.882812 41.699219 C 51.273438 43.234375 51.433594 44.847656 51.59375 46.433594 C 51.917969 49.777344 52.417969 56.191406 54.761719 60.21875 C 55.570312 61.625 56.605469 62.738281 57.898438 63.382812 C 59.207031 64.03125 60.789062 64.191406 62.730469 63.644531 C 63.859375 63.320312 64.960938 62.785156 65.960938 62.171875 C 68.386719 60.652344 69.289062 58.148438 69.597656 55.417969 C 69.886719 52.800781 69.628906 49.957031 69.710938 47.644531 C 69.824219 44.25 72.117188 39.160156 72.894531 34.601562 C 73.378906 31.742188 73.25 29.078125 71.746094 27.136719 C 70.730469 25.828125 69.097656 24.828125 66.574219 24.324219 C 64.765625 23.953125 63.214844 24.035156 61.695312 24.082031 C 59.53125 24.164062 57.429688 24.179688 54.585938 22.660156 C 51.871094 21.191406 50.011719 18.667969 47.878906 16.664062 C 45.648438 14.566406 43.144531 13.03125 39.25 13.722656 C 38.132812 13.902344 37.082031 14.339844 36.113281 14.886719 Z M 38.277344 45.542969 C 38.277344 46.625 38.570312 48.226562 38.554688 49.601562 C 38.539062 50.488281 38.441406 51.296875 37.921875 51.71875 C 37.699219 51.910156 37.375 52.007812 36.953125 51.992188 C 36.453125 51.992188 35.839844 51.828125 35.046875 51.523438 C 33.964844 51.085938 33.15625 50.199219 32.363281 49.277344 C 31.492188 48.273438 30.652344 47.222656 29.585938 46.578125 C 28.355469 45.835938 26.464844 45.398438 24.785156 44.75 C 23.410156 44.21875 22.167969 43.539062 21.699219 42.3125 C 21.390625 41.488281 21.425781 40.4375 21.957031 39.046875 C 22.425781 37.804688 23.074219 37.027344 23.832031 36.589844 C 24.609375 36.136719 25.496094 36.023438 26.449219 36.042969 C 27.792969 36.074219 29.246094 36.414062 30.601562 36.640625 C 31.394531 36.769531 32.1875 36.738281 32.980469 36.71875 C 33.707031 36.703125 34.433594 36.703125 35.160156 36.882812 C 36.421875 37.1875 37.148438 38.160156 37.601562 39.355469 C 38.3125 41.277344 38.277344 43.832031 38.277344 45.542969 Z M 39.101562 45.542969 C 39.101562 43.75 39.121094 41.082031 38.359375 39.046875 C 37.8125 37.59375 36.890625 36.445312 35.355469 36.074219 C 34.5625 35.878906 33.753906 35.878906 32.960938 35.894531 C 32.21875 35.914062 31.476562 35.945312 30.75 35.816406 C 29.34375 35.574219 27.871094 35.234375 26.480469 35.203125 C 25.382812 35.167969 24.332031 35.332031 23.429688 35.863281 C 22.523438 36.398438 21.746094 37.285156 21.199219 38.742188 C 20.550781 40.453125 20.582031 41.730469 21.003906 42.714844 C 21.425781 43.703125 22.25 44.414062 23.28125 44.960938 C 25.140625 45.949219 27.679688 46.367188 29.179688 47.289062 C 30.183594 47.902344 30.957031 48.890625 31.765625 49.828125 C 32.65625 50.84375 33.558594 51.8125 34.773438 52.296875 C 36.664062 53.058594 37.792969 52.914062 38.472656 52.363281 C 39.152344 51.8125 39.394531 50.796875 39.410156 49.617188 C 39.394531 48.226562 39.101562 46.644531 39.101562 45.542969 Z M 15.074219 53.703125 C 16.707031 56.953125 19.890625 58.101562 23.429688 58.648438 C 27.257812 59.246094 31.492188 59.152344 34.757812 60.054688 C 39.425781 61.347656 43.355469 64.273438 47.425781 66.550781 C 51.386719 68.765625 55.507812 70.382812 60.644531 69.152344 C 65.960938 67.878906 69.128906 65.890625 71.050781 63.351562 C 72.960938 60.832031 73.605469 57.792969 73.894531 54.464844 C 74.300781 49.90625 74.027344 44.832031 75.238281 39.789062 C 76.191406 35.816406 78.015625 31.808594 78.035156 25.84375 C 78.050781 22.628906 77.453125 20.800781 76.402344 19.847656 C 75.367188 18.910156 73.929688 18.847656 72.296875 19.039062 C 70.550781 19.234375 68.597656 19.734375 66.6875 19.960938 C 64.683594 20.1875 62.746094 20.109375 61.097656 19.121094 C 56.929688 16.632812 53.597656 12.851562 49.882812 9.941406 C 46.261719 7.113281 42.269531 5.128906 36.679688 6.128906 C 32.671875 6.855469 31.296875 9.585938 30.652344 12.820312 C 29.972656 16.246094 30.070312 20.203125 29.019531 23.179688 C 28.710938 24.035156 28.324219 24.84375 27.871094 25.617188 C 28.808594 26.75 29.796875 27.800781 30.957031 28.511719 C 32.980469 29.753906 35.453125 29.949219 37.535156 30.59375 C 39.796875 31.289062 41.640625 32.46875 42.222656 35.703125 C 43.128906 38.871094 44.421875 43.328125 44.386719 47.335938 C 44.355469 51.507812 42.917969 55.160156 38.296875 56.515625 C 37.082031 56.871094 35.839844 57.035156 34.5625 57.015625 C 32.445312 56.984375 30.425781 56.371094 28.40625 55.691406 C 26.449219 55.03125 24.511719 54.300781 22.507812 53.996094 C 20.324219 53.65625 17.707031 53.722656 15.074219 53.703125 Z M 14.703125 52.878906 C 11.664062 45.59375 14.136719 40.9375 17.867188 36.800781 C 20.988281 33.328125 24.964844 30.222656 27.453125 26.328125 C 28.390625 27.445312 29.390625 28.480469 30.554688 29.191406 C 32.640625 30.464844 35.160156 30.691406 37.324219 31.355469 C 39.3125 31.96875 40.945312 32.988281 41.445312 35.832031 C 41.445312 35.847656 41.445312 35.863281 41.460938 35.878906 C 42.351562 38.984375 43.628906 43.378906 43.613281 47.304688 C 43.578125 51.101562 42.320312 54.464844 38.101562 55.691406 C 36.96875 56.03125 35.789062 56.175781 34.609375 56.160156 C 32.574219 56.128906 30.636719 55.53125 28.695312 54.882812 C 26.691406 54.207031 24.703125 53.460938 22.652344 53.15625 C 20.308594 52.832031 17.496094 52.929688 14.703125 52.878906 Z M 26.902344 25.683594 C 26.273438 24.90625 25.65625 24.117188 25.011719 23.371094 C 23.332031 21.449219 21.457031 19.847656 18.53125 20.027344 C 16.285156 20.15625 14.265625 20.800781 12.792969 22.597656 C 11.761719 23.839844 11.386719 25.359375 11.097656 26.894531 C 10.789062 28.542969 10.582031 30.222656 9.886719 31.726562 C 8.996094 33.664062 7.074219 34.734375 5.570312 36.105469 C 2.628906 38.789062 1.046875 41.957031 1.984375 45.996094 C 3.050781 50.554688 6.378906 52.074219 10.273438 52.589844 C 11.421875 52.734375 12.601562 52.816406 13.8125 52.847656 C 10.824219 45.367188 13.390625 40.535156 17.253906 36.234375 C 20.421875 32.746094 24.476562 29.640625 26.902344 25.683594 Z M 27.339844 24.921875 C 26.773438 24.210938 26.222656 23.5 25.625 22.839844 C 23.785156 20.722656 21.683594 19.007812 18.484375 19.21875 C 16.011719 19.363281 13.796875 20.109375 12.164062 22.078125 C 11.03125 23.4375 10.613281 25.070312 10.289062 26.75 C 10 28.332031 9.804688 29.949219 9.140625 31.386719 C 8.738281 32.277344 8.074219 32.953125 7.363281 33.585938 C 6.605469 34.246094 5.75 34.84375 5.023438 35.507812 C 1.855469 38.402344 0.171875 41.84375 1.191406 46.191406 C 2.355469 51.152344 5.925781 52.847656 10.175781 53.414062 C 11.46875 53.589844 12.8125 53.65625 14.167969 53.6875 C 15.863281 57.484375 19.371094 58.84375 23.296875 59.457031 C 27.097656 60.054688 31.296875 59.941406 34.53125 60.847656 C 39.136719 62.125 42.996094 65.015625 47.023438 67.261719 C 51.160156 69.574219 55.457031 71.238281 60.839844 69.945312 C 66.398438 68.621094 69.710938 66.488281 71.699219 63.851562 C 73.703125 61.203125 74.398438 58.035156 74.703125 54.546875 C 75.09375 50.019531 74.816406 44.996094 76.03125 39.984375 C 77 35.960938 78.839844 31.886719 78.859375 25.84375 C 78.875 22.289062 78.113281 20.300781 76.949219 19.234375 C 75.753906 18.152344 74.089844 18.007812 72.214844 18.21875 C 70.46875 18.410156 68.515625 18.910156 66.609375 19.136719 C 64.796875 19.347656 63.019531 19.300781 61.535156 18.410156 C 57.398438 15.9375 54.101562 12.171875 50.398438 9.28125 C 46.601562 6.308594 42.398438 4.253906 36.550781 5.304688 C 32.136719 6.097656 30.570312 9.070312 29.859375 12.640625 C 29.179688 16.019531 29.308594 19.945312 28.261719 22.886719 C 28.015625 23.597656 27.695312 24.277344 27.339844 24.921875 Z M 27.339844 24.921875 " fill-opacity="1" fill-rule="evenodd"/></g><g fill="#000000" fill-opacity="1"><g transform="translate(87.816884, 38.614774)"><g><path d="M 13.859375 -5.390625 L 13.859375 0 L 10.625 0 C 8.320312 0 6.523438 -0.5625 5.234375 -1.6875 C 3.953125 -2.8125 3.3125 -4.65625 3.3125 -7.21875 L 3.3125 -15.46875 L 0.78125 -15.46875 L 0.78125 -20.734375 L 3.3125 -20.734375 L 3.3125 -25.796875 L 9.671875 -25.796875 L 9.671875 -20.734375 L 13.828125 -20.734375 L 13.828125 -15.46875 L 9.671875 -15.46875 L 9.671875 -7.140625 C 9.671875 -6.515625 9.816406 -6.066406 10.109375 -5.796875 C 10.410156 -5.523438 10.90625 -5.390625 11.59375 -5.390625 Z M 13.859375 -5.390625 "/></g></g></g><g fill="#000000" fill-opacity="1"><g transform="translate(104.468363, 38.614774)"><g><path d="M 11.75 0.296875 C 9.71875 0.296875 7.890625 -0.132812 6.265625 -1 C 4.640625 -1.863281 3.363281 -3.101562 2.4375 -4.71875 C 1.507812 -6.332031 1.046875 -8.21875 1.046875 -10.375 C 1.046875 -12.5 1.515625 -14.375 2.453125 -16 C 3.390625 -17.625 4.675781 -18.867188 6.3125 -19.734375 C 7.945312 -20.609375 9.785156 -21.046875 11.828125 -21.046875 C 13.859375 -21.046875 15.691406 -20.609375 17.328125 -19.734375 C 18.960938 -18.867188 20.25 -17.625 21.1875 -16 C 22.125 -14.375 22.59375 -12.5 22.59375 -10.375 C 22.59375 -8.238281 22.113281 -6.359375 21.15625 -4.734375 C 20.207031 -3.109375 18.910156 -1.863281 17.265625 -1 C 15.617188 -0.132812 13.78125 0.296875 11.75 0.296875 Z M 11.75 -5.203125 C 12.957031 -5.203125 13.988281 -5.644531 14.84375 -6.53125 C 15.695312 -7.425781 16.125 -8.707031 16.125 -10.375 C 16.125 -12.03125 15.707031 -13.300781 14.875 -14.1875 C 14.050781 -15.082031 13.035156 -15.53125 11.828125 -15.53125 C 10.585938 -15.53125 9.554688 -15.09375 8.734375 -14.21875 C 7.921875 -13.34375 7.515625 -12.0625 7.515625 -10.375 C 7.515625 -8.707031 7.914062 -7.425781 8.71875 -6.53125 C 9.519531 -5.644531 10.53125 -5.203125 11.75 -5.203125 Z M 11.75 -5.203125 "/></g></g></g><g fill="#000000" fill-opacity="1"><g transform="translate(129.705426, 38.614774)"><g><path d="M 28.765625 -20.96875 C 31.347656 -20.96875 33.398438 -20.1875 34.921875 -18.625 C 36.441406 -17.0625 37.203125 -14.894531 37.203125 -12.125 L 37.203125 0 L 30.890625 0 L 30.890625 -11.265625 C 30.890625 -12.597656 30.535156 -13.628906 29.828125 -14.359375 C 29.117188 -15.097656 28.144531 -15.46875 26.90625 -15.46875 C 25.664062 -15.46875 24.691406 -15.097656 23.984375 -14.359375 C 23.285156 -13.628906 22.9375 -12.597656 22.9375 -11.265625 L 22.9375 0 L 16.609375 0 L 16.609375 -11.265625 C 16.609375 -12.597656 16.253906 -13.628906 15.546875 -14.359375 C 14.847656 -15.097656 13.878906 -15.46875 12.640625 -15.46875 C 11.398438 -15.46875 10.425781 -15.097656 9.71875 -14.359375 C 9.007812 -13.628906 8.65625 -12.597656 8.65625 -11.265625 L 8.65625 0 L 2.296875 0 L 2.296875 -20.734375 L 8.65625 -20.734375 L 8.65625 -18.140625 C 9.300781 -19.003906 10.144531 -19.691406 11.1875 -20.203125 C 12.226562 -20.710938 13.40625 -20.96875 14.71875 -20.96875 C 16.28125 -20.96875 17.671875 -20.628906 18.890625 -19.953125 C 20.117188 -19.285156 21.082031 -18.332031 21.78125 -17.09375 C 22.5 -18.238281 23.476562 -19.171875 24.71875 -19.890625 C 25.957031 -20.609375 27.304688 -20.96875 28.765625 -20.96875 Z M 28.765625 -20.96875 "/></g></g></g><g fill="#000000" fill-opacity="1"><g transform="translate(170.626952, 38.614774)"><g><path d="M 21.859375 -10.703125 C 21.859375 -10.109375 21.820312 -9.488281 21.75 -8.84375 L 7.359375 -8.84375 C 7.460938 -7.550781 7.878906 -6.566406 8.609375 -5.890625 C 9.335938 -5.210938 10.234375 -4.875 11.296875 -4.875 C 12.878906 -4.875 13.984375 -5.539062 14.609375 -6.875 L 21.375 -6.875 C 21.03125 -5.507812 20.40625 -4.28125 19.5 -3.1875 C 18.59375 -2.101562 17.457031 -1.25 16.09375 -0.625 C 14.726562 -0.0078125 13.203125 0.296875 11.515625 0.296875 C 9.484375 0.296875 7.675781 -0.132812 6.09375 -1 C 4.507812 -1.863281 3.269531 -3.101562 2.375 -4.71875 C 1.488281 -6.332031 1.046875 -8.21875 1.046875 -10.375 C 1.046875 -12.53125 1.484375 -14.410156 2.359375 -16.015625 C 3.242188 -17.628906 4.476562 -18.867188 6.0625 -19.734375 C 7.644531 -20.609375 9.460938 -21.046875 11.515625 -21.046875 C 13.523438 -21.046875 15.3125 -20.625 16.875 -19.78125 C 18.4375 -18.9375 19.65625 -17.734375 20.53125 -16.171875 C 21.414062 -14.609375 21.859375 -12.785156 21.859375 -10.703125 Z M 15.359375 -12.375 C 15.359375 -13.46875 14.984375 -14.335938 14.234375 -14.984375 C 13.492188 -15.628906 12.566406 -15.953125 11.453125 -15.953125 C 10.378906 -15.953125 9.476562 -15.640625 8.75 -15.015625 C 8.019531 -14.398438 7.566406 -13.519531 7.390625 -12.375 Z M 15.359375 -12.375 "/></g></g></g><g fill="#000000" fill-opacity="1"><g transform="translate(195.0835, 38.614774)"><g><path d="M 8.65625 -17.8125 C 9.25 -18.769531 10.101562 -19.546875 11.21875 -20.140625 C 12.34375 -20.742188 13.617188 -21.046875 15.046875 -21.046875 C 16.765625 -21.046875 18.316406 -20.609375 19.703125 -19.734375 C 21.085938 -18.867188 22.179688 -17.628906 22.984375 -16.015625 C 23.796875 -14.410156 24.203125 -12.539062 24.203125 -10.40625 C 24.203125 -8.28125 23.796875 -6.40625 22.984375 -4.78125 C 22.179688 -3.15625 21.085938 -1.898438 19.703125 -1.015625 C 18.316406 -0.140625 16.765625 0.296875 15.046875 0.296875 C 13.585938 0.296875 12.3125 0.00390625 11.21875 -0.578125 C 10.132812 -1.160156 9.28125 -1.9375 8.65625 -2.90625 L 8.65625 0 L 2.296875 0 L 2.296875 -27.5 L 8.65625 -27.5 Z M 17.734375 -10.40625 C 17.734375 -11.988281 17.289062 -13.234375 16.40625 -14.140625 C 15.53125 -15.046875 14.445312 -15.5 13.15625 -15.5 C 11.894531 -15.5 10.820312 -15.039062 9.9375 -14.125 C 9.0625 -13.207031 8.625 -11.957031 8.625 -10.375 C 8.625 -8.78125 9.0625 -7.523438 9.9375 -6.609375 C 10.820312 -5.691406 11.894531 -5.234375 13.15625 -5.234375 C 14.414062 -5.234375 15.492188 -5.695312 16.390625 -6.625 C 17.285156 -7.5625 17.734375 -8.820312 17.734375 -10.40625 Z M 17.734375 -10.40625 "/></g></g></g><g fill="#000000" fill-opacity="1"><g transform="translate(221.881566, 38.614774)"><g><path d="M 1.046875 -10.40625 C 1.046875 -12.539062 1.445312 -14.410156 2.25 -16.015625 C 3.050781 -17.628906 4.144531 -18.867188 5.53125 -19.734375 C 6.925781 -20.609375 8.476562 -21.046875 10.1875 -21.046875 C 11.644531 -21.046875 12.925781 -20.742188 14.03125 -20.140625 C 15.132812 -19.546875 15.984375 -18.769531 16.578125 -17.8125 L 16.578125 -20.734375 L 22.9375 -20.734375 L 22.9375 0 L 16.578125 0 L 16.578125 -2.9375 C 15.960938 -1.96875 15.101562 -1.1875 14 -0.59375 C 12.894531 0 11.609375 0.296875 10.140625 0.296875 C 8.460938 0.296875 6.925781 -0.140625 5.53125 -1.015625 C 4.144531 -1.898438 3.050781 -3.15625 2.25 -4.78125 C 1.445312 -6.40625 1.046875 -8.28125 1.046875 -10.40625 Z M 16.578125 -10.375 C 16.578125 -11.957031 16.132812 -13.207031 15.25 -14.125 C 14.375 -15.039062 13.304688 -15.5 12.046875 -15.5 C 10.773438 -15.5 9.703125 -15.046875 8.828125 -14.140625 C 7.953125 -13.234375 7.515625 -11.988281 7.515625 -10.40625 C 7.515625 -8.820312 7.953125 -7.5625 8.828125 -6.625 C 9.703125 -5.695312 10.773438 -5.234375 12.046875 -5.234375 C 13.304688 -5.234375 14.375 -5.691406 15.25 -6.609375 C 16.132812 -7.523438 16.578125 -8.78125 16.578125 -10.375 Z M 16.578125 -10.375 "/></g></g></g><g fill="#000000" fill-opacity="1"><g transform="translate(248.679632, 38.614774)"><g><path d="M 28.765625 -20.96875 C 31.347656 -20.96875 33.398438 -20.1875 34.921875 -18.625 C 36.441406 -17.0625 37.203125 -14.894531 37.203125 -12.125 L 37.203125 0 L 30.890625 0 L 30.890625 -11.265625 C 30.890625 -12.597656 30.535156 -13.628906 29.828125 -14.359375 C 29.117188 -15.097656 28.144531 -15.46875 26.90625 -15.46875 C 25.664062 -15.46875 24.691406 -15.097656 23.984375 -14.359375 C 23.285156 -13.628906 22.9375 -12.597656 22.9375 -11.265625 L 22.9375 0 L 16.609375 0 L 16.609375 -11.265625 C 16.609375 -12.597656 16.253906 -13.628906 15.546875 -14.359375 C 14.847656 -15.097656 13.878906 -15.46875 12.640625 -15.46875 C 11.398438 -15.46875 10.425781 -15.097656 9.71875 -14.359375 C 9.007812 -13.628906 8.65625 -12.597656 8.65625 -11.265625 L 8.65625 0 L 2.296875 0 L 2.296875 -20.734375 L 8.65625 -20.734375 L 8.65625 -18.140625 C 9.300781 -19.003906 10.144531 -19.691406 11.1875 -20.203125 C 12.226562 -20.710938 13.40625 -20.96875 14.71875 -20.96875 C 16.28125 -20.96875 17.671875 -20.628906 18.890625 -19.953125 C 20.117188 -19.285156 21.082031 -18.332031 21.78125 -17.09375 C 22.5 -18.238281 23.476562 -19.171875 24.71875 -19.890625 C 25.957031 -20.609375 27.304688 -20.96875 28.765625 -20.96875 Z M 28.765625 -20.96875 "/></g></g></g><g fill="#000000" fill-opacity="1"><g transform="translate(289.601159, 38.614774)"><g><path d="M 8.65625 -17.8125 C 9.25 -18.769531 10.101562 -19.546875 11.21875 -20.140625 C 12.34375 -20.742188 13.617188 -21.046875 15.046875 -21.046875 C 16.765625 -21.046875 18.316406 -20.609375 19.703125 -19.734375 C 21.085938 -18.867188 22.179688 -17.628906 22.984375 -16.015625 C 23.796875 -14.410156 24.203125 -12.539062 24.203125 -10.40625 C 24.203125 -8.28125 23.796875 -6.40625 22.984375 -4.78125 C 22.179688 -3.15625 21.085938 -1.898438 19.703125 -1.015625 C 18.316406 -0.140625 16.765625 0.296875 15.046875 0.296875 C 13.585938 0.296875 12.3125 0.00390625 11.21875 -0.578125 C 10.132812 -1.160156 9.28125 -1.9375 8.65625 -2.90625 L 8.65625 0 L 2.296875 0 L 2.296875 -27.5 L 8.65625 -27.5 Z M 17.734375 -10.40625 C 17.734375 -11.988281 17.289062 -13.234375 16.40625 -14.140625 C 15.53125 -15.046875 14.445312 -15.5 13.15625 -15.5 C 11.894531 -15.5 10.820312 -15.039062 9.9375 -14.125 C 9.0625 -13.207031 8.625 -11.957031 8.625 -10.375 C 8.625 -8.78125 9.0625 -7.523438 9.9375 -6.609375 C 10.820312 -5.691406 11.894531 -5.234375 13.15625 -5.234375 C 14.414062 -5.234375 15.492188 -5.695312 16.390625 -6.625 C 17.285156 -7.5625 17.734375 -8.820312 17.734375 -10.40625 Z M 17.734375 -10.40625 "/></g></g></g><g fill="#000000" fill-opacity="1"><g transform="translate(316.399225, 38.614774)"><g><path d="M 5.5 -22.890625 C 4.382812 -22.890625 3.472656 -23.21875 2.765625 -23.875 C 2.054688 -24.539062 1.703125 -25.351562 1.703125 -26.3125 C 1.703125 -27.300781 2.054688 -28.125 2.765625 -28.78125 C 3.472656 -29.445312 4.382812 -29.78125 5.5 -29.78125 C 6.59375 -29.78125 7.488281 -29.445312 8.1875 -28.78125 C 8.894531 -28.125 9.25 -27.300781 9.25 -26.3125 C 9.25 -25.351562 8.894531 -24.539062 8.1875 -23.875 C 7.488281 -23.21875 6.59375 -22.890625 5.5 -22.890625 Z M 8.65625 -20.734375 L 8.65625 0 L 2.296875 0 L 2.296875 -20.734375 Z M 8.65625 -20.734375 "/></g></g></g><g fill="#000000" fill-opacity="1"><g transform="translate(328.925167, 38.614774)"><g><path d="M 14.984375 0 L 8.65625 -8.703125 L 8.65625 0 L 2.296875 0 L 2.296875 -27.5 L 8.65625 -27.5 L 8.65625 -12.296875 L 14.9375 -20.734375 L 22.78125 -20.734375 L 14.15625 -10.328125 L 22.859375 0 Z M 14.984375 0 "/></g></g></g><g fill="#000000" fill-opacity="1"><g transform="translate(353.456066, 38.614774)"><g><path d="M 21.859375 -10.703125 C 21.859375 -10.109375 21.820312 -9.488281 21.75 -8.84375 L 7.359375 -8.84375 C 7.460938 -7.550781 7.878906 -6.566406 8.609375 -5.890625 C 9.335938 -5.210938 10.234375 -4.875 11.296875 -4.875 C 12.878906 -4.875 13.984375 -5.539062 14.609375 -6.875 L 21.375 -6.875 C 21.03125 -5.507812 20.40625 -4.28125 19.5 -3.1875 C 18.59375 -2.101562 17.457031 -1.25 16.09375 -0.625 C 14.726562 -0.0078125 13.203125 0.296875 11.515625 0.296875 C 9.484375 0.296875 7.675781 -0.132812 6.09375 -1 C 4.507812 -1.863281 3.269531 -3.101562 2.375 -4.71875 C 1.488281 -6.332031 1.046875 -8.21875 1.046875 -10.375 C 1.046875 -12.53125 1.484375 -14.410156 2.359375 -16.015625 C 3.242188 -17.628906 4.476562 -18.867188 6.0625 -19.734375 C 7.644531 -20.609375 9.460938 -21.046875 11.515625 -21.046875 C 13.523438 -21.046875 15.3125 -20.625 16.875 -19.78125 C 18.4375 -18.9375 19.65625 -17.734375 20.53125 -16.171875 C 21.414062 -14.609375 21.859375 -12.785156 21.859375 -10.703125 Z M 15.359375 -12.375 C 15.359375 -13.46875 14.984375 -14.335938 14.234375 -14.984375 C 13.492188 -15.628906 12.566406 -15.953125 11.453125 -15.953125 C 10.378906 -15.953125 9.476562 -15.640625 8.75 -15.015625 C 8.019531 -14.398438 7.566406 -13.519531 7.390625 -12.375 Z M 15.359375 -12.375 "/></g></g></g><g fill="#000000" fill-opacity="1"><g transform="translate(87.816884, 66.682762)"><g><path d="M 11.53125 -7.140625 L 9.078125 -7.140625 L 8.53125 -4.828125 L 10.734375 -4.828125 L 10.734375 -3.140625 L 8.125 -3.140625 L 7.359375 0 L 5.53125 0 L 6.328125 -3.140625 L 4.3125 -3.140625 L 3.546875 0 L 1.734375 0 L 2.5 -3.140625 L 0.625 -3.140625 L 0.625 -4.828125 L 2.90625 -4.828125 L 3.46875 -7.140625 L 1.40625 -7.140625 L 1.40625 -8.71875 L 3.859375 -8.71875 L 4.640625 -11.953125 L 6.46875 -11.953125 L 5.65625 -8.71875 L 7.671875 -8.71875 L 8.453125 -11.953125 L 10.265625 -11.953125 L 9.46875 -8.71875 L 11.53125 -8.71875 Z M 6.734375 -4.828125 L 7.265625 -7.140625 L 5.265625 -7.140625 L 4.71875 -4.828125 Z M 6.734375 -4.828125 "/></g></g></g><g fill="#000000" fill-opacity="1"><g transform="translate(100.661423, 66.682762)"><g><path d="M 0.515625 -6.0625 C 0.515625 -6.789062 0.644531 -7.507812 0.90625 -8.21875 C 1.175781 -8.9375 1.5625 -9.570312 2.0625 -10.125 C 2.570312 -10.6875 3.191406 -11.140625 3.921875 -11.484375 C 4.648438 -11.835938 5.476562 -12.015625 6.40625 -12.015625 C 7.507812 -12.015625 8.460938 -11.769531 9.265625 -11.28125 C 10.066406 -10.800781 10.664062 -10.175781 11.0625 -9.40625 L 9.265625 -8.171875 C 9.109375 -8.515625 8.914062 -8.800781 8.6875 -9.03125 C 8.46875 -9.257812 8.226562 -9.441406 7.96875 -9.578125 C 7.71875 -9.710938 7.453125 -9.8125 7.171875 -9.875 C 6.890625 -9.9375 6.613281 -9.96875 6.34375 -9.96875 C 5.757812 -9.96875 5.25 -9.847656 4.8125 -9.609375 C 4.382812 -9.367188 4.023438 -9.0625 3.734375 -8.6875 C 3.453125 -8.3125 3.238281 -7.882812 3.09375 -7.40625 C 2.945312 -6.9375 2.875 -6.460938 2.875 -5.984375 C 2.875 -5.460938 2.957031 -4.957031 3.125 -4.46875 C 3.289062 -3.976562 3.53125 -3.546875 3.84375 -3.171875 C 4.15625 -2.804688 4.523438 -2.507812 4.953125 -2.28125 C 5.390625 -2.0625 5.863281 -1.953125 6.375 -1.953125 C 6.644531 -1.953125 6.925781 -1.984375 7.21875 -2.046875 C 7.507812 -2.117188 7.785156 -2.226562 8.046875 -2.375 C 8.316406 -2.519531 8.5625 -2.707031 8.78125 -2.9375 C 9.007812 -3.164062 9.191406 -3.441406 9.328125 -3.765625 L 11.21875 -2.671875 C 11.03125 -2.222656 10.757812 -1.828125 10.40625 -1.484375 C 10.050781 -1.140625 9.648438 -0.847656 9.203125 -0.609375 C 8.765625 -0.378906 8.289062 -0.203125 7.78125 -0.078125 C 7.28125 0.0351562 6.789062 0.09375 6.3125 0.09375 C 5.457031 0.09375 4.675781 -0.0820312 3.96875 -0.4375 C 3.257812 -0.789062 2.648438 -1.253906 2.140625 -1.828125 C 1.628906 -2.410156 1.226562 -3.066406 0.9375 -3.796875 C 0.65625 -4.535156 0.515625 -5.289062 0.515625 -6.0625 Z M 0.515625 -6.0625 "/></g></g></g><g fill="#000000" fill-opacity="1"><g transform="translate(112.916765, 66.682762)"><g><path d="M 5.09375 0.171875 C 4.375 0.171875 3.726562 0.046875 3.15625 -0.203125 C 2.59375 -0.453125 2.109375 -0.785156 1.703125 -1.203125 C 1.304688 -1.617188 1 -2.101562 0.78125 -2.65625 C 0.570312 -3.207031 0.46875 -3.785156 0.46875 -4.390625 C 0.46875 -5.003906 0.570312 -5.585938 0.78125 -6.140625 C 1 -6.691406 1.304688 -7.175781 1.703125 -7.59375 C 2.109375 -8.019531 2.59375 -8.351562 3.15625 -8.59375 C 3.726562 -8.84375 4.375 -8.96875 5.09375 -8.96875 C 5.8125 -8.96875 6.453125 -8.84375 7.015625 -8.59375 C 7.585938 -8.351562 8.070312 -8.019531 8.46875 -7.59375 C 8.875 -7.175781 9.179688 -6.691406 9.390625 -6.140625 C 9.597656 -5.585938 9.703125 -5.003906 9.703125 -4.390625 C 9.703125 -3.785156 9.597656 -3.207031 9.390625 -2.65625 C 9.179688 -2.101562 8.878906 -1.617188 8.484375 -1.203125 C 8.085938 -0.785156 7.601562 -0.453125 7.03125 -0.203125 C 6.457031 0.046875 5.8125 0.171875 5.09375 0.171875 Z M 2.796875 -4.390625 C 2.796875 -3.992188 2.851562 -3.632812 2.96875 -3.3125 C 3.082031 -3 3.242188 -2.722656 3.453125 -2.484375 C 3.660156 -2.253906 3.90625 -2.070312 4.1875 -1.9375 C 4.46875 -1.8125 4.769531 -1.75 5.09375 -1.75 C 5.425781 -1.75 5.726562 -1.8125 6 -1.9375 C 6.28125 -2.070312 6.523438 -2.253906 6.734375 -2.484375 C 6.941406 -2.722656 7.101562 -3.003906 7.21875 -3.328125 C 7.34375 -3.648438 7.40625 -4.007812 7.40625 -4.40625 C 7.40625 -4.789062 7.34375 -5.144531 7.21875 -5.46875 C 7.101562 -5.789062 6.941406 -6.066406 6.734375 -6.296875 C 6.523438 -6.535156 6.28125 -6.71875 6 -6.84375 C 5.726562 -6.976562 5.425781 -7.046875 5.09375 -7.046875 C 4.769531 -7.046875 4.46875 -6.976562 4.1875 -6.84375 C 3.90625 -6.707031 3.660156 -6.519531 3.453125 -6.28125 C 3.242188 -6.050781 3.082031 -5.773438 2.96875 -5.453125 C 2.851562 -5.128906 2.796875 -4.773438 2.796875 -4.390625 Z M 2.796875 -4.390625 "/></g></g></g><g fill="#000000" fill-opacity="1"><g transform="translate(123.825372, 66.682762)"><g><path d="M 9.21875 0 L 6.96875 0 L 6.96875 -4.953125 C 6.96875 -5.648438 6.84375 -6.160156 6.59375 -6.484375 C 6.34375 -6.816406 6 -6.984375 5.5625 -6.984375 C 5.34375 -6.984375 5.113281 -6.9375 4.875 -6.84375 C 4.644531 -6.757812 4.425781 -6.632812 4.21875 -6.46875 C 4.007812 -6.300781 3.820312 -6.101562 3.65625 -5.875 C 3.488281 -5.65625 3.363281 -5.414062 3.28125 -5.15625 L 3.28125 0 L 1.03125 0 L 1.03125 -8.8125 L 3.0625 -8.8125 L 3.0625 -7.1875 C 3.382812 -7.75 3.851562 -8.1875 4.46875 -8.5 C 5.09375 -8.8125 5.789062 -8.96875 6.5625 -8.96875 C 7.113281 -8.96875 7.5625 -8.863281 7.90625 -8.65625 C 8.257812 -8.457031 8.53125 -8.195312 8.71875 -7.875 C 8.90625 -7.550781 9.035156 -7.179688 9.109375 -6.765625 C 9.179688 -6.347656 9.21875 -5.925781 9.21875 -5.5 Z M 9.21875 0 "/></g></g></g><g fill="#000000" fill-opacity="1"><g transform="translate(134.700303, 66.682762)"><g><path d="M 4.359375 0.171875 C 3.617188 0.171875 2.894531 0.0546875 2.1875 -0.171875 C 1.476562 -0.410156 0.875 -0.75 0.375 -1.1875 L 1.21875 -2.609375 C 1.75 -2.222656 2.269531 -1.929688 2.78125 -1.734375 C 3.289062 -1.546875 3.800781 -1.453125 4.3125 -1.453125 C 4.757812 -1.453125 5.109375 -1.535156 5.359375 -1.703125 C 5.617188 -1.867188 5.75 -2.109375 5.75 -2.421875 C 5.75 -2.734375 5.597656 -2.960938 5.296875 -3.109375 C 4.992188 -3.253906 4.5 -3.425781 3.8125 -3.625 C 3.25 -3.78125 2.765625 -3.929688 2.359375 -4.078125 C 1.953125 -4.222656 1.625 -4.382812 1.375 -4.5625 C 1.132812 -4.75 0.957031 -4.960938 0.84375 -5.203125 C 0.726562 -5.441406 0.671875 -5.734375 0.671875 -6.078125 C 0.671875 -6.523438 0.753906 -6.925781 0.921875 -7.28125 C 1.097656 -7.644531 1.34375 -7.953125 1.65625 -8.203125 C 1.976562 -8.453125 2.347656 -8.644531 2.765625 -8.78125 C 3.191406 -8.914062 3.648438 -8.984375 4.140625 -8.984375 C 4.796875 -8.984375 5.410156 -8.882812 5.984375 -8.6875 C 6.566406 -8.5 7.101562 -8.195312 7.59375 -7.78125 L 6.6875 -6.40625 C 6.226562 -6.75 5.789062 -7 5.375 -7.15625 C 4.957031 -7.3125 4.539062 -7.390625 4.125 -7.390625 C 3.738281 -7.390625 3.414062 -7.3125 3.15625 -7.15625 C 2.90625 -7 2.78125 -6.742188 2.78125 -6.390625 C 2.78125 -6.234375 2.8125 -6.101562 2.875 -6 C 2.9375 -5.90625 3.03125 -5.816406 3.15625 -5.734375 C 3.289062 -5.660156 3.46875 -5.585938 3.6875 -5.515625 C 3.90625 -5.441406 4.179688 -5.363281 4.515625 -5.28125 C 5.117188 -5.125 5.632812 -4.96875 6.0625 -4.8125 C 6.5 -4.65625 6.851562 -4.472656 7.125 -4.265625 C 7.394531 -4.066406 7.59375 -3.835938 7.71875 -3.578125 C 7.851562 -3.316406 7.921875 -3 7.921875 -2.625 C 7.921875 -1.757812 7.597656 -1.078125 6.953125 -0.578125 C 6.316406 -0.078125 5.453125 0.171875 4.359375 0.171875 Z M 4.359375 0.171875 "/></g></g></g><g fill="#000000" fill-opacity="1"><g transform="translate(143.773966, 66.682762)"><g><path d="M 6.3125 -0.453125 C 6.007812 -0.316406 5.640625 -0.179688 5.203125 -0.046875 C 4.765625 0.0859375 4.300781 0.15625 3.8125 0.15625 C 3.5 0.15625 3.207031 0.113281 2.9375 0.03125 C 2.664062 -0.0390625 2.425781 -0.164062 2.21875 -0.34375 C 2.007812 -0.519531 1.84375 -0.742188 1.71875 -1.015625 C 1.59375 -1.296875 1.53125 -1.628906 1.53125 -2.015625 L 1.53125 -7.078125 L 0.375 -7.078125 L 0.375 -8.8125 L 1.53125 -8.8125 L 1.53125 -11.671875 L 3.78125 -11.671875 L 3.78125 -8.8125 L 5.640625 -8.8125 L 5.640625 -7.078125 L 3.78125 -7.078125 L 3.78125 -2.78125 C 3.78125 -2.46875 3.863281 -2.242188 4.03125 -2.109375 C 4.195312 -1.984375 4.394531 -1.921875 4.625 -1.921875 C 4.863281 -1.921875 5.09375 -1.957031 5.3125 -2.03125 C 5.539062 -2.113281 5.722656 -2.179688 5.859375 -2.234375 Z M 6.3125 -0.453125 "/></g></g></g><g fill="#000000" fill-opacity="1"><g transform="translate(150.945361, 66.682762)"><g><path d="M 6.28125 -6.859375 C 5.59375 -6.847656 4.976562 -6.71875 4.4375 -6.46875 C 3.90625 -6.21875 3.519531 -5.835938 3.28125 -5.328125 L 3.28125 0 L 1.03125 0 L 1.03125 -8.8125 L 3.09375 -8.8125 L 3.09375 -6.9375 C 3.25 -7.238281 3.429688 -7.507812 3.640625 -7.75 C 3.859375 -7.988281 4.09375 -8.195312 4.34375 -8.375 C 4.59375 -8.5625 4.84375 -8.703125 5.09375 -8.796875 C 5.34375 -8.890625 5.585938 -8.9375 5.828125 -8.9375 C 5.941406 -8.9375 6.03125 -8.9375 6.09375 -8.9375 C 6.15625 -8.9375 6.21875 -8.929688 6.28125 -8.921875 Z M 6.28125 -6.859375 "/></g></g></g><g fill="#000000" fill-opacity="1"><g transform="translate(158.167256, 66.682762)"><g><path d="M 3.71875 0.171875 C 2.8125 0.171875 2.117188 -0.117188 1.640625 -0.703125 C 1.171875 -1.285156 0.9375 -2.148438 0.9375 -3.296875 L 0.9375 -8.8125 L 3.203125 -8.8125 L 3.203125 -3.78125 C 3.203125 -2.425781 3.6875 -1.75 4.65625 -1.75 C 5.09375 -1.75 5.515625 -1.878906 5.921875 -2.140625 C 6.335938 -2.410156 6.675781 -2.8125 6.9375 -3.34375 L 6.9375 -8.8125 L 9.1875 -8.8125 L 9.1875 -2.59375 C 9.1875 -2.351562 9.226562 -2.179688 9.3125 -2.078125 C 9.394531 -1.984375 9.535156 -1.929688 9.734375 -1.921875 L 9.734375 0 C 9.503906 0.0390625 9.3125 0.0664062 9.15625 0.078125 C 9.007812 0.0859375 8.875 0.09375 8.75 0.09375 C 8.34375 0.09375 8.015625 0.00390625 7.765625 -0.171875 C 7.515625 -0.359375 7.363281 -0.613281 7.3125 -0.9375 L 7.265625 -1.65625 C 6.878906 -1.039062 6.375 -0.582031 5.75 -0.28125 C 5.132812 0.0195312 4.457031 0.171875 3.71875 0.171875 Z M 3.71875 0.171875 "/></g></g></g><g clip-path="url(#1e8180195e)"><g fill="#000000" fill-opacity="1"><g transform="translate(169.277866, 66.682762)"><g><path d="M 1.21875 1.71875 C 1.40625 1.769531 1.585938 1.8125 1.765625 1.84375 C 1.941406 1.875 2.09375 1.890625 2.21875 1.890625 C 2.363281 1.890625 2.5 1.859375 2.625 1.796875 C 2.75 1.742188 2.859375 1.644531 2.953125 1.5 C 3.054688 1.363281 3.160156 1.171875 3.265625 0.921875 C 3.367188 0.679688 3.472656 0.375 3.578125 0 L 0.09375 -8.8125 L 2.421875 -8.8125 L 4.8125 -1.953125 L 6.9375 -8.8125 L 9.046875 -8.8125 L 5.34375 1.75 C 5.132812 2.363281 4.769531 2.867188 4.25 3.265625 C 3.738281 3.660156 3.101562 3.859375 2.34375 3.859375 C 2.15625 3.859375 1.96875 3.84375 1.78125 3.8125 C 1.601562 3.78125 1.414062 3.734375 1.21875 3.671875 Z M 1.21875 1.71875 "/></g></g></g></g><g fill="#000000" fill-opacity="1"><g transform="translate(179.243745, 66.682762)"><g><path d="M 5.109375 0.171875 C 4.410156 0.171875 3.773438 0.0507812 3.203125 -0.1875 C 2.628906 -0.4375 2.140625 -0.765625 1.734375 -1.171875 C 1.328125 -1.585938 1.015625 -2.070312 0.796875 -2.625 C 0.578125 -3.175781 0.46875 -3.753906 0.46875 -4.359375 C 0.46875 -4.984375 0.570312 -5.570312 0.78125 -6.125 C 1 -6.6875 1.3125 -7.175781 1.71875 -7.59375 C 2.125 -8.019531 2.613281 -8.351562 3.1875 -8.59375 C 3.769531 -8.84375 4.414062 -8.96875 5.125 -8.96875 C 5.84375 -8.96875 6.484375 -8.84375 7.046875 -8.59375 C 7.617188 -8.351562 8.101562 -8.023438 8.5 -7.609375 C 8.90625 -7.191406 9.210938 -6.707031 9.421875 -6.15625 C 9.628906 -5.601562 9.734375 -5.03125 9.734375 -4.4375 C 9.734375 -4.289062 9.726562 -4.148438 9.71875 -4.015625 C 9.707031 -3.878906 9.691406 -3.769531 9.671875 -3.6875 L 2.859375 -3.6875 C 2.890625 -3.332031 2.972656 -3.019531 3.109375 -2.75 C 3.242188 -2.488281 3.414062 -2.257812 3.625 -2.0625 C 3.84375 -1.875 4.085938 -1.726562 4.359375 -1.625 C 4.628906 -1.53125 4.910156 -1.484375 5.203125 -1.484375 C 5.648438 -1.484375 6.070312 -1.59375 6.46875 -1.8125 C 6.863281 -2.03125 7.132812 -2.316406 7.28125 -2.671875 L 9.21875 -2.140625 C 8.894531 -1.460938 8.375 -0.90625 7.65625 -0.46875 C 6.945312 -0.0390625 6.097656 0.171875 5.109375 0.171875 Z M 7.40625 -5.15625 C 7.34375 -5.8125 7.097656 -6.335938 6.671875 -6.734375 C 6.242188 -7.140625 5.71875 -7.34375 5.09375 -7.34375 C 4.789062 -7.34375 4.507812 -7.285156 4.25 -7.171875 C 3.988281 -7.066406 3.753906 -6.914062 3.546875 -6.71875 C 3.347656 -6.53125 3.179688 -6.300781 3.046875 -6.03125 C 2.921875 -5.769531 2.847656 -5.476562 2.828125 -5.15625 Z M 7.40625 -5.15625 "/></g></g></g><g fill="#000000" fill-opacity="1"><g transform="translate(190.034512, 66.682762)"><g><path d="M 9.21875 0 L 6.96875 0 L 6.96875 -4.953125 C 6.96875 -5.648438 6.84375 -6.160156 6.59375 -6.484375 C 6.34375 -6.816406 6 -6.984375 5.5625 -6.984375 C 5.34375 -6.984375 5.113281 -6.9375 4.875 -6.84375 C 4.644531 -6.757812 4.425781 -6.632812 4.21875 -6.46875 C 4.007812 -6.300781 3.820312 -6.101562 3.65625 -5.875 C 3.488281 -5.65625 3.363281 -5.414062 3.28125 -5.15625 L 3.28125 0 L 1.03125 0 L 1.03125 -8.8125 L 3.0625 -8.8125 L 3.0625 -7.1875 C 3.382812 -7.75 3.851562 -8.1875 4.46875 -8.5 C 5.09375 -8.8125 5.789062 -8.96875 6.5625 -8.96875 C 7.113281 -8.96875 7.5625 -8.863281 7.90625 -8.65625 C 8.257812 -8.457031 8.53125 -8.195312 8.71875 -7.875 C 8.90625 -7.550781 9.035156 -7.179688 9.109375 -6.765625 C 9.179688 -6.347656 9.21875 -5.925781 9.21875 -5.5 Z M 9.21875 0 "/></g></g></g><g fill="#000000" fill-opacity="1"><g transform="translate(200.909443, 66.682762)"><g><path d="M 4.671875 0.171875 C 4.066406 0.171875 3.503906 0.0546875 2.984375 -0.171875 C 2.472656 -0.410156 2.03125 -0.738281 1.65625 -1.15625 C 1.289062 -1.570312 1.003906 -2.054688 0.796875 -2.609375 C 0.585938 -3.171875 0.484375 -3.769531 0.484375 -4.40625 C 0.484375 -5.050781 0.582031 -5.644531 0.78125 -6.1875 C 0.976562 -6.738281 1.25 -7.222656 1.59375 -7.640625 C 1.945312 -8.054688 2.363281 -8.378906 2.84375 -8.609375 C 3.320312 -8.847656 3.847656 -8.96875 4.421875 -8.96875 C 5.078125 -8.96875 5.664062 -8.8125 6.1875 -8.5 C 6.707031 -8.1875 7.113281 -7.773438 7.40625 -7.265625 L 7.40625 -12.28125 L 9.65625 -12.28125 L 9.65625 -2.59375 C 9.65625 -2.351562 9.691406 -2.179688 9.765625 -2.078125 C 9.847656 -1.984375 9.988281 -1.929688 10.1875 -1.921875 L 10.1875 0 C 9.789062 0.0820312 9.46875 0.125 9.21875 0.125 C 8.8125 0.125 8.476562 0.0234375 8.21875 -0.171875 C 7.96875 -0.378906 7.828125 -0.644531 7.796875 -0.96875 L 7.734375 -1.53125 C 7.410156 -0.96875 6.972656 -0.539062 6.421875 -0.25 C 5.867188 0.03125 5.285156 0.171875 4.671875 0.171875 Z M 5.265625 -1.75 C 5.484375 -1.75 5.703125 -1.785156 5.921875 -1.859375 C 6.148438 -1.929688 6.359375 -2.035156 6.546875 -2.171875 C 6.734375 -2.304688 6.898438 -2.460938 7.046875 -2.640625 C 7.203125 -2.816406 7.320312 -3.015625 7.40625 -3.234375 L 7.40625 -5.328125 C 7.3125 -5.578125 7.179688 -5.804688 7.015625 -6.015625 C 6.859375 -6.222656 6.675781 -6.398438 6.46875 -6.546875 C 6.257812 -6.703125 6.039062 -6.820312 5.8125 -6.90625 C 5.582031 -7 5.351562 -7.046875 5.125 -7.046875 C 4.789062 -7.046875 4.476562 -6.972656 4.1875 -6.828125 C 3.90625 -6.679688 3.660156 -6.484375 3.453125 -6.234375 C 3.253906 -5.984375 3.097656 -5.691406 2.984375 -5.359375 C 2.878906 -5.035156 2.828125 -4.703125 2.828125 -4.359375 C 2.828125 -3.984375 2.890625 -3.640625 3.015625 -3.328125 C 3.140625 -3.015625 3.304688 -2.738281 3.515625 -2.5 C 3.734375 -2.269531 3.988281 -2.085938 4.28125 -1.953125 C 4.582031 -1.816406 4.910156 -1.75 5.265625 -1.75 Z M 5.265625 -1.75 "/></g></g></g><g fill="#000000" fill-opacity="1"><g transform="translate(212.474586, 66.682762)"><g><path d="M 5.09375 0.171875 C 4.375 0.171875 3.726562 0.046875 3.15625 -0.203125 C 2.59375 -0.453125 2.109375 -0.785156 1.703125 -1.203125 C 1.304688 -1.617188 1 -2.101562 0.78125 -2.65625 C 0.570312 -3.207031 0.46875 -3.785156 0.46875 -4.390625 C 0.46875 -5.003906 0.570312 -5.585938 0.78125 -6.140625 C 1 -6.691406 1.304688 -7.175781 1.703125 -7.59375 C 2.109375 -8.019531 2.59375 -8.351562 3.15625 -8.59375 C 3.726562 -8.84375 4.375 -8.96875 5.09375 -8.96875 C 5.8125 -8.96875 6.453125 -8.84375 7.015625 -8.59375 C 7.585938 -8.351562 8.070312 -8.019531 8.46875 -7.59375 C 8.875 -7.175781 9.179688 -6.691406 9.390625 -6.140625 C 9.597656 -5.585938 9.703125 -5.003906 9.703125 -4.390625 C 9.703125 -3.785156 9.597656 -3.207031 9.390625 -2.65625 C 9.179688 -2.101562 8.878906 -1.617188 8.484375 -1.203125 C 8.085938 -0.785156 7.601562 -0.453125 7.03125 -0.203125 C 6.457031 0.046875 5.8125 0.171875 5.09375 0.171875 Z M 2.796875 -4.390625 C 2.796875 -3.992188 2.851562 -3.632812 2.96875 -3.3125 C 3.082031 -3 3.242188 -2.722656 3.453125 -2.484375 C 3.660156 -2.253906 3.90625 -2.070312 4.1875 -1.9375 C 4.46875 -1.8125 4.769531 -1.75 5.09375 -1.75 C 5.425781 -1.75 5.726562 -1.8125 6 -1.9375 C 6.28125 -2.070312 6.523438 -2.253906 6.734375 -2.484375 C 6.941406 -2.722656 7.101562 -3.003906 7.21875 -3.328125 C 7.34375 -3.648438 7.40625 -4.007812 7.40625 -4.40625 C 7.40625 -4.789062 7.34375 -5.144531 7.21875 -5.46875 C 7.101562 -5.789062 6.941406 -6.066406 6.734375 -6.296875 C 6.523438 -6.535156 6.28125 -6.71875 6 -6.84375 C 5.726562 -6.976562 5.425781 -7.046875 5.09375 -7.046875 C 4.769531 -7.046875 4.46875 -6.976562 4.1875 -6.84375 C 3.90625 -6.707031 3.660156 -6.519531 3.453125 -6.28125 C 3.242188 -6.050781 3.082031 -5.773438 2.96875 -5.453125 C 2.851562 -5.128906 2.796875 -4.773438 2.796875 -4.390625 Z M 2.796875 -4.390625 "/></g></g></g><g fill="#000000" fill-opacity="1"><g transform="translate(223.383193, 66.682762)"><g><path d="M 0.515625 -6.0625 C 0.515625 -6.789062 0.644531 -7.507812 0.90625 -8.21875 C 1.175781 -8.9375 1.5625 -9.570312 2.0625 -10.125 C 2.570312 -10.6875 3.191406 -11.140625 3.921875 -11.484375 C 4.648438 -11.835938 5.476562 -12.015625 6.40625 -12.015625 C 7.507812 -12.015625 8.460938 -11.769531 9.265625 -11.28125 C 10.066406 -10.800781 10.664062 -10.175781 11.0625 -9.40625 L 9.265625 -8.171875 C 9.109375 -8.515625 8.914062 -8.800781 8.6875 -9.03125 C 8.46875 -9.257812 8.226562 -9.441406 7.96875 -9.578125 C 7.71875 -9.710938 7.453125 -9.8125 7.171875 -9.875 C 6.890625 -9.9375 6.613281 -9.96875 6.34375 -9.96875 C 5.757812 -9.96875 5.25 -9.847656 4.8125 -9.609375 C 4.382812 -9.367188 4.023438 -9.0625 3.734375 -8.6875 C 3.453125 -8.3125 3.238281 -7.882812 3.09375 -7.40625 C 2.945312 -6.9375 2.875 -6.460938 2.875 -5.984375 C 2.875 -5.460938 2.957031 -4.957031 3.125 -4.46875 C 3.289062 -3.976562 3.53125 -3.546875 3.84375 -3.171875 C 4.15625 -2.804688 4.523438 -2.507812 4.953125 -2.28125 C 5.390625 -2.0625 5.863281 -1.953125 6.375 -1.953125 C 6.644531 -1.953125 6.925781 -1.984375 7.21875 -2.046875 C 7.507812 -2.117188 7.785156 -2.226562 8.046875 -2.375 C 8.316406 -2.519531 8.5625 -2.707031 8.78125 -2.9375 C 9.007812 -3.164062 9.191406 -3.441406 9.328125 -3.765625 L 11.21875 -2.671875 C 11.03125 -2.222656 10.757812 -1.828125 10.40625 -1.484375 C 10.050781 -1.140625 9.648438 -0.847656 9.203125 -0.609375 C 8.765625 -0.378906 8.289062 -0.203125 7.78125 -0.078125 C 7.28125 0.0351562 6.789062 0.09375 6.3125 0.09375 C 5.457031 0.09375 4.675781 -0.0820312 3.96875 -0.4375 C 3.257812 -0.789062 2.648438 -1.253906 2.140625 -1.828125 C 1.628906 -2.410156 1.226562 -3.066406 0.9375 -3.796875 C 0.65625 -4.535156 0.515625 -5.289062 0.515625 -6.0625 Z M 0.515625 -6.0625 "/></g></g></g><g fill="#000000" fill-opacity="1"><g transform="translate(235.638535, 66.682762)"><g><path d="M 1.03125 0 L 1.03125 -8.8125 L 3.28125 -8.8125 L 3.28125 0 Z M 1.03125 -10.046875 L 1.03125 -12.28125 L 3.28125 -12.28125 L 3.28125 -10.046875 Z M 1.03125 -10.046875 "/></g></g></g><g fill="#000000" fill-opacity="1"><g transform="translate(240.638305, 66.682762)"><g><path d="M 3.71875 0.171875 C 2.8125 0.171875 2.117188 -0.117188 1.640625 -0.703125 C 1.171875 -1.285156 0.9375 -2.148438 0.9375 -3.296875 L 0.9375 -8.8125 L 3.203125 -8.8125 L 3.203125 -3.78125 C 3.203125 -2.425781 3.6875 -1.75 4.65625 -1.75 C 5.09375 -1.75 5.515625 -1.878906 5.921875 -2.140625 C 6.335938 -2.410156 6.675781 -2.8125 6.9375 -3.34375 L 6.9375 -8.8125 L 9.1875 -8.8125 L 9.1875 -2.59375 C 9.1875 -2.351562 9.226562 -2.179688 9.3125 -2.078125 C 9.394531 -1.984375 9.535156 -1.929688 9.734375 -1.921875 L 9.734375 0 C 9.503906 0.0390625 9.3125 0.0664062 9.15625 0.078125 C 9.007812 0.0859375 8.875 0.09375 8.75 0.09375 C 8.34375 0.09375 8.015625 0.00390625 7.765625 -0.171875 C 7.515625 -0.359375 7.363281 -0.613281 7.3125 -0.9375 L 7.265625 -1.65625 C 6.878906 -1.039062 6.375 -0.582031 5.75 -0.28125 C 5.132812 0.0195312 4.457031 0.171875 3.71875 0.171875 Z M 3.71875 0.171875 "/></g></g></g><g fill="#000000" fill-opacity="1"><g transform="translate(251.748915, 66.682762)"><g><path d="M 4.671875 0.171875 C 4.066406 0.171875 3.503906 0.0546875 2.984375 -0.171875 C 2.472656 -0.410156 2.03125 -0.738281 1.65625 -1.15625 C 1.289062 -1.570312 1.003906 -2.054688 0.796875 -2.609375 C 0.585938 -3.171875 0.484375 -3.769531 0.484375 -4.40625 C 0.484375 -5.050781 0.582031 -5.644531 0.78125 -6.1875 C 0.976562 -6.738281 1.25 -7.222656 1.59375 -7.640625 C 1.945312 -8.054688 2.363281 -8.378906 2.84375 -8.609375 C 3.320312 -8.847656 3.847656 -8.96875 4.421875 -8.96875 C 5.078125 -8.96875 5.664062 -8.8125 6.1875 -8.5 C 6.707031 -8.1875 7.113281 -7.773438 7.40625 -7.265625 L 7.40625 -12.28125 L 9.65625 -12.28125 L 9.65625 -2.59375 C 9.65625 -2.351562 9.691406 -2.179688 9.765625 -2.078125 C 9.847656 -1.984375 9.988281 -1.929688 10.1875 -1.921875 L 10.1875 0 C 9.789062 0.0820312 9.46875 0.125 9.21875 0.125 C 8.8125 0.125 8.476562 0.0234375 8.21875 -0.171875 C 7.96875 -0.378906 7.828125 -0.644531 7.796875 -0.96875 L 7.734375 -1.53125 C 7.410156 -0.96875 6.972656 -0.539062 6.421875 -0.25 C 5.867188 0.03125 5.285156 0.171875 4.671875 0.171875 Z M 5.265625 -1.75 C 5.484375 -1.75 5.703125 -1.785156 5.921875 -1.859375 C 6.148438 -1.929688 6.359375 -2.035156 6.546875 -2.171875 C 6.734375 -2.304688 6.898438 -2.460938 7.046875 -2.640625 C 7.203125 -2.816406 7.320312 -3.015625 7.40625 -3.234375 L 7.40625 -5.328125 C 7.3125 -5.578125 7.179688 -5.804688 7.015625 -6.015625 C 6.859375 -6.222656 6.675781 -6.398438 6.46875 -6.546875 C 6.257812 -6.703125 6.039062 -6.820312 5.8125 -6.90625 C 5.582031 -7 5.351562 -7.046875 5.125 -7.046875 C 4.789062 -7.046875 4.476562 -6.972656 4.1875 -6.828125 C 3.90625 -6.679688 3.660156 -6.484375 3.453125 -6.234375 C 3.253906 -5.984375 3.097656 -5.691406 2.984375 -5.359375 C 2.878906 -5.035156 2.828125 -4.703125 2.828125 -4.359375 C 2.828125 -3.984375 2.890625 -3.640625 3.015625 -3.328125 C 3.140625 -3.015625 3.304688 -2.738281 3.515625 -2.5 C 3.734375 -2.269531 3.988281 -2.085938 4.28125 -1.953125 C 4.582031 -1.816406 4.910156 -1.75 5.265625 -1.75 Z M 5.265625 -1.75 "/></g></g></g><g fill="#000000" fill-opacity="1"><g transform="translate(263.314058, 66.682762)"><g><path d="M 3.4375 0.171875 C 3.007812 0.171875 2.609375 0.101562 2.234375 -0.03125 C 1.867188 -0.175781 1.550781 -0.375 1.28125 -0.625 C 1.007812 -0.882812 0.796875 -1.179688 0.640625 -1.515625 C 0.492188 -1.847656 0.421875 -2.21875 0.421875 -2.625 C 0.421875 -3.039062 0.507812 -3.425781 0.6875 -3.78125 C 0.875 -4.132812 1.132812 -4.429688 1.46875 -4.671875 C 1.800781 -4.921875 2.195312 -5.113281 2.65625 -5.25 C 3.113281 -5.394531 3.617188 -5.46875 4.171875 -5.46875 C 4.566406 -5.46875 4.953125 -5.429688 5.328125 -5.359375 C 5.703125 -5.296875 6.035156 -5.203125 6.328125 -5.078125 L 6.328125 -5.59375 C 6.328125 -6.175781 6.160156 -6.625 5.828125 -6.9375 C 5.492188 -7.25 5.003906 -7.40625 4.359375 -7.40625 C 3.890625 -7.40625 3.429688 -7.320312 2.984375 -7.15625 C 2.535156 -6.988281 2.070312 -6.738281 1.59375 -6.40625 L 0.90625 -7.84375 C 2.039062 -8.59375 3.265625 -8.96875 4.578125 -8.96875 C 5.847656 -8.96875 6.832031 -8.65625 7.53125 -8.03125 C 8.226562 -7.40625 8.578125 -6.503906 8.578125 -5.328125 L 8.578125 -2.59375 C 8.578125 -2.351562 8.617188 -2.179688 8.703125 -2.078125 C 8.785156 -1.984375 8.925781 -1.929688 9.125 -1.921875 L 9.125 0 C 8.738281 0.0820312 8.40625 0.125 8.125 0.125 C 7.695312 0.125 7.367188 0.03125 7.140625 -0.15625 C 6.910156 -0.351562 6.769531 -0.609375 6.71875 -0.921875 L 6.65625 -1.40625 C 6.269531 -0.894531 5.796875 -0.503906 5.234375 -0.234375 C 4.671875 0.0351562 4.070312 0.171875 3.4375 0.171875 Z M 4.078125 -1.484375 C 4.453125 -1.484375 4.8125 -1.550781 5.15625 -1.6875 C 5.5 -1.820312 5.765625 -2 5.953125 -2.21875 C 6.203125 -2.40625 6.328125 -2.617188 6.328125 -2.859375 L 6.328125 -3.875 C 6.054688 -3.96875 5.765625 -4.046875 5.453125 -4.109375 C 5.140625 -4.171875 4.835938 -4.203125 4.546875 -4.203125 C 3.960938 -4.203125 3.484375 -4.070312 3.109375 -3.8125 C 2.742188 -3.550781 2.5625 -3.21875 2.5625 -2.8125 C 2.5625 -2.425781 2.707031 -2.109375 3 -1.859375 C 3.289062 -1.609375 3.648438 -1.484375 4.078125 -1.484375 Z M 4.078125 -1.484375 "/></g></g></g><g fill="#000000" fill-opacity="1"><g transform="translate(273.683969, 66.682762)"><g><path d="M 4.671875 0.171875 C 4.066406 0.171875 3.503906 0.0546875 2.984375 -0.171875 C 2.472656 -0.410156 2.03125 -0.738281 1.65625 -1.15625 C 1.289062 -1.570312 1.003906 -2.054688 0.796875 -2.609375 C 0.585938 -3.171875 0.484375 -3.769531 0.484375 -4.40625 C 0.484375 -5.050781 0.582031 -5.644531 0.78125 -6.1875 C 0.976562 -6.738281 1.25 -7.222656 1.59375 -7.640625 C 1.945312 -8.054688 2.363281 -8.378906 2.84375 -8.609375 C 3.320312 -8.847656 3.847656 -8.96875 4.421875 -8.96875 C 5.078125 -8.96875 5.664062 -8.8125 6.1875 -8.5 C 6.707031 -8.1875 7.113281 -7.773438 7.40625 -7.265625 L 7.40625 -12.28125 L 9.65625 -12.28125 L 9.65625 -2.59375 C 9.65625 -2.351562 9.691406 -2.179688 9.765625 -2.078125 C 9.847656 -1.984375 9.988281 -1.929688 10.1875 -1.921875 L 10.1875 0 C 9.789062 0.0820312 9.46875 0.125 9.21875 0.125 C 8.8125 0.125 8.476562 0.0234375 8.21875 -0.171875 C 7.96875 -0.378906 7.828125 -0.644531 7.796875 -0.96875 L 7.734375 -1.53125 C 7.410156 -0.96875 6.972656 -0.539062 6.421875 -0.25 C 5.867188 0.03125 5.285156 0.171875 4.671875 0.171875 Z M 5.265625 -1.75 C 5.484375 -1.75 5.703125 -1.785156 5.921875 -1.859375 C 6.148438 -1.929688 6.359375 -2.035156 6.546875 -2.171875 C 6.734375 -2.304688 6.898438 -2.460938 7.046875 -2.640625 C 7.203125 -2.816406 7.320312 -3.015625 7.40625 -3.234375 L 7.40625 -5.328125 C 7.3125 -5.578125 7.179688 -5.804688 7.015625 -6.015625 C 6.859375 -6.222656 6.675781 -6.398438 6.46875 -6.546875 C 6.257812 -6.703125 6.039062 -6.820312 5.8125 -6.90625 C 5.582031 -7 5.351562 -7.046875 5.125 -7.046875 C 4.789062 -7.046875 4.476562 -6.972656 4.1875 -6.828125 C 3.90625 -6.679688 3.660156 -6.484375 3.453125 -6.234375 C 3.253906 -5.984375 3.097656 -5.691406 2.984375 -5.359375 C 2.878906 -5.035156 2.828125 -4.703125 2.828125 -4.359375 C 2.828125 -3.984375 2.890625 -3.640625 3.015625 -3.328125 C 3.140625 -3.015625 3.304688 -2.738281 3.515625 -2.5 C 3.734375 -2.269531 3.988281 -2.085938 4.28125 -1.953125 C 4.582031 -1.816406 4.910156 -1.75 5.265625 -1.75 Z M 5.265625 -1.75 "/></g></g></g></g></g></g></svg>