<svg xmlns="http://www.w3.org/2000/svg" xmlns:xlink="http://www.w3.org/1999/xlink" width="512" zoomAndPan="magnify" viewBox="0 0 384 122.249994" height="163" preserveAspectRatio="xMidYMid meet" version="1.0"><defs><g/><clipPath id="a9b1e6c29d"><path d="M 1.171875 28 L 79.871094 28 L 79.871094 94 L 1.171875 94 Z M 1.171875 28 " clip-rule="nonzero"/></clipPath><clipPath id="9eb3dfbb6e"><rect x="0" width="292" y="0" height="53"/></clipPath><clipPath id="857a77f9b6"><path d="M 82 7 L 92 7 L 92 20.984375 L 82 20.984375 Z M 82 7 " clip-rule="nonzero"/></clipPath><clipPath id="71e7907fcd"><rect x="0" width="199" y="0" height="21"/></clipPath></defs><g clip-path="url(#a9b1e6c29d)"><path fill="#ffffff" d="M 65.925781 57.070312 C 65.925781 57.085938 65.941406 57.101562 65.960938 57.117188 C 66.445312 58.007812 66.507812 58.945312 66.445312 59.882812 C 66.363281 60.917969 66.136719 61.949219 66.089844 62.96875 C 65.960938 65.117188 66.332031 67.234375 66.636719 69.367188 C 66.929688 71.40625 67.171875 73.457031 66.832031 75.507812 C 66.71875 76.203125 66.523438 76.882812 66.21875 77.433594 C 65.960938 77.917969 65.601562 78.289062 65.136719 78.449219 C 64.730469 78.578125 64.230469 78.546875 63.632812 78.304688 C 60.253906 76.929688 59.058594 73.277344 58.28125 69.335938 C 57.457031 65.167969 57.136719 60.65625 55.585938 57.78125 C 54.066406 54.96875 51.980469 52.285156 49.085938 50.769531 C 47.730469 50.054688 46.015625 49.554688 44.5 48.8125 C 43.109375 48.132812 41.878906 47.261719 41.378906 45.742188 C 41.21875 45.273438 41.21875 44.902344 41.332031 44.59375 C 41.507812 44.15625 41.976562 43.933594 42.511719 43.800781 C 43.578125 43.542969 44.949219 43.722656 45.726562 44.09375 C 48.601562 45.433594 50.960938 47.957031 53.726562 49.554688 C 55.921875 50.832031 58.523438 51.445312 60.851562 52.398438 C 63 53.320312 64.925781 54.53125 65.925781 57.070312 Z M 66.816406 56.683594 C 65.714844 53.886719 63.617188 52.511719 61.191406 51.511719 C 58.914062 50.574219 56.34375 49.976562 54.179688 48.714844 C 51.398438 47.097656 49.007812 44.546875 46.097656 43.203125 C 45.160156 42.769531 43.511719 42.542969 42.25 42.847656 C 41.394531 43.058594 40.699219 43.511719 40.410156 44.207031 C 40.214844 44.675781 40.183594 45.273438 40.425781 46.015625 C 41.007812 47.792969 42.414062 48.859375 44.03125 49.652344 C 45.53125 50.378906 47.246094 50.878906 48.585938 51.59375 C 51.316406 53.03125 53.257812 55.566406 54.679688 58.21875 C 55.566406 59.882812 56.035156 62.113281 56.441406 64.503906 C 56.859375 66.960938 57.199219 69.59375 57.863281 71.9375 C 58.769531 75.21875 60.269531 77.964844 63.226562 79.160156 C 64.085938 79.515625 64.796875 79.53125 65.394531 79.339844 C 65.960938 79.160156 66.425781 78.773438 66.78125 78.257812 C 67.269531 77.5625 67.574219 76.625 67.753906 75.636719 C 68.125 73.472656 67.882812 71.324219 67.574219 69.191406 C 67.285156 67.136719 66.914062 65.070312 67.042969 63 C 67.105469 62 67.332031 60.964844 67.398438 59.929688 C 67.476562 58.847656 67.382812 57.75 66.816406 56.683594 Z M 37.324219 38.679688 C 37.371094 38.679688 37.417969 38.664062 37.453125 38.632812 C 38.355469 38.113281 39.328125 37.679688 40.378906 37.5 C 43.964844 36.871094 46.257812 38.308594 48.3125 40.230469 C 50.476562 42.265625 52.402344 44.835938 55.179688 46.339844 C 57.683594 47.695312 59.65625 47.90625 61.578125 47.890625 C 63.40625 47.875 65.199219 47.648438 67.398438 48.101562 C 69.675781 48.570312 71.179688 49.441406 72.082031 50.621094 C 73.457031 52.398438 73.507812 54.839844 73.070312 57.457031 C 72.292969 62.046875 69.984375 67.1875 69.871094 70.613281 C 69.789062 72.90625 70.0625 75.71875 69.757812 78.320312 C 69.480469 80.808594 68.691406 83.105469 66.492188 84.476562 C 65.570312 85.058594 64.535156 85.5625 63.46875 85.851562 C 61.773438 86.335938 60.382812 86.207031 59.234375 85.640625 C 58.074219 85.074219 57.167969 84.058594 56.441406 82.796875 C 54.160156 78.871094 53.691406 72.601562 53.386719 69.335938 C 53.226562 67.71875 53.0625 66.070312 52.660156 64.488281 C 52.109375 62.289062 51.414062 60.09375 50.105469 58.234375 C 48.183594 55.488281 45.613281 53.289062 42.589844 51.851562 C 41.410156 51.300781 39.988281 50.816406 38.648438 50.1875 C 37.386719 49.589844 36.207031 48.859375 35.496094 47.746094 C 34.511719 46.226562 33.914062 43.480469 34.511719 41.363281 C 34.882812 40.039062 35.738281 38.953125 37.324219 38.679688 Z M 37.113281 37.886719 C 35.222656 38.242188 34.171875 39.535156 33.71875 41.152344 C 33.074219 43.496094 33.71875 46.535156 34.816406 48.214844 C 35.609375 49.441406 36.902344 50.265625 38.308594 50.945312 C 39.632812 51.574219 41.070312 52.058594 42.25 52.609375 C 45.144531 53.984375 47.617188 56.085938 49.441406 58.71875 C 50.6875 60.496094 51.351562 62.613281 51.882812 64.699219 C 52.269531 66.234375 52.433594 67.847656 52.59375 69.433594 C 52.917969 72.777344 53.417969 79.195312 55.761719 83.21875 C 56.570312 84.625 57.605469 85.738281 58.898438 86.386719 C 60.207031 87.03125 61.789062 87.191406 63.730469 86.644531 C 64.859375 86.320312 65.960938 85.785156 66.960938 85.171875 C 69.386719 83.652344 70.289062 81.148438 70.597656 78.417969 C 70.886719 75.800781 70.628906 72.957031 70.710938 70.644531 C 70.824219 67.25 73.117188 62.160156 73.894531 57.601562 C 74.378906 54.742188 74.25 52.078125 72.746094 50.136719 C 71.726562 48.828125 70.097656 47.828125 67.574219 47.324219 C 65.765625 46.953125 64.214844 47.035156 62.695312 47.082031 C 60.527344 47.164062 58.429688 47.179688 55.585938 45.660156 C 52.871094 44.191406 51.011719 41.667969 48.878906 39.664062 C 46.648438 37.566406 44.140625 36.03125 40.246094 36.722656 C 39.132812 36.902344 38.082031 37.339844 37.113281 37.886719 Z M 39.277344 68.542969 C 39.277344 69.625 39.570312 71.226562 39.554688 72.601562 C 39.535156 73.488281 39.441406 74.296875 38.921875 74.71875 C 38.695312 74.910156 38.375 75.007812 37.953125 74.992188 C 37.453125 74.992188 36.839844 74.832031 36.046875 74.523438 C 34.964844 74.085938 34.15625 73.199219 33.363281 72.277344 C 32.492188 71.273438 31.652344 70.226562 30.585938 69.578125 C 29.355469 68.835938 27.464844 68.398438 25.785156 67.753906 C 24.410156 67.21875 23.167969 66.539062 22.699219 65.3125 C 22.390625 64.488281 22.421875 63.4375 22.957031 62.046875 C 23.425781 60.804688 24.070312 60.027344 24.832031 59.589844 C 25.605469 59.140625 26.496094 59.027344 27.449219 59.042969 C 28.789062 59.074219 30.246094 59.414062 31.601562 59.640625 C 32.394531 59.769531 33.1875 59.738281 33.976562 59.71875 C 34.703125 59.703125 35.433594 59.703125 36.160156 59.882812 C 37.417969 60.1875 38.148438 61.160156 38.597656 62.355469 C 39.3125 64.277344 39.277344 66.832031 39.277344 68.542969 Z M 40.101562 68.542969 C 40.101562 66.75 40.117188 64.082031 39.359375 62.046875 C 38.808594 60.59375 37.886719 59.445312 36.351562 59.074219 C 35.5625 58.878906 34.753906 58.878906 33.960938 58.894531 C 33.21875 58.914062 32.476562 58.945312 31.746094 58.816406 C 30.339844 58.574219 28.871094 58.234375 27.480469 58.203125 C 26.382812 58.167969 25.332031 58.332031 24.425781 58.863281 C 23.523438 59.398438 22.746094 60.285156 22.195312 61.742188 C 21.550781 63.453125 21.582031 64.730469 22.003906 65.714844 C 22.421875 66.703125 23.246094 67.414062 24.28125 67.960938 C 26.140625 68.949219 28.675781 69.367188 30.179688 70.289062 C 31.183594 70.902344 31.957031 71.890625 32.765625 72.828125 C 33.65625 73.84375 34.558594 74.8125 35.773438 75.300781 C 37.664062 76.058594 38.792969 75.914062 39.472656 75.363281 C 40.152344 74.8125 40.394531 73.796875 40.410156 72.617188 C 40.394531 71.226562 40.101562 69.644531 40.101562 68.542969 Z M 16.070312 76.703125 C 17.703125 79.953125 20.886719 81.101562 24.425781 81.648438 C 28.257812 82.246094 32.492188 82.152344 35.753906 83.054688 C 40.425781 84.347656 44.351562 87.273438 48.425781 89.550781 C 52.382812 91.765625 56.503906 93.382812 61.644531 92.152344 C 66.960938 90.878906 70.128906 88.890625 72.050781 86.351562 C 73.957031 83.832031 74.605469 80.792969 74.894531 77.464844 C 75.300781 72.90625 75.023438 67.832031 76.238281 62.789062 C 77.191406 58.816406 79.015625 54.808594 79.03125 48.84375 C 79.050781 45.628906 78.449219 43.800781 77.402344 42.847656 C 76.367188 41.910156 74.929688 41.847656 73.296875 42.042969 C 71.550781 42.234375 69.59375 42.734375 67.6875 42.960938 C 65.683594 43.1875 63.746094 43.109375 62.097656 42.121094 C 57.925781 39.632812 54.597656 35.851562 50.882812 32.941406 C 47.261719 30.113281 43.269531 28.128906 37.679688 29.128906 C 33.671875 29.855469 32.296875 32.585938 31.652344 35.820312 C 30.972656 39.246094 31.070312 43.203125 30.019531 46.179688 C 29.710938 47.035156 29.324219 47.84375 28.871094 48.617188 C 29.808594 49.75 30.792969 50.800781 31.957031 51.511719 C 33.976562 52.753906 36.449219 52.949219 38.535156 53.597656 C 40.796875 54.289062 42.640625 55.46875 43.222656 58.703125 C 44.125 61.871094 45.417969 66.332031 45.386719 70.335938 C 45.355469 74.507812 43.917969 78.160156 39.292969 79.515625 C 38.082031 79.871094 36.839844 80.035156 35.5625 80.019531 C 33.445312 79.984375 31.425781 79.371094 29.40625 78.691406 C 27.449219 78.03125 25.507812 77.304688 23.503906 76.996094 C 21.324219 76.65625 18.707031 76.722656 16.070312 76.703125 Z M 15.699219 75.878906 C 12.664062 68.59375 15.136719 63.9375 18.867188 59.800781 C 21.988281 56.328125 25.960938 53.222656 28.449219 49.328125 C 29.386719 50.445312 30.390625 51.480469 31.554688 52.191406 C 33.636719 53.464844 36.160156 53.691406 38.324219 54.355469 C 40.3125 54.96875 41.945312 55.988281 42.445312 58.832031 C 42.445312 58.847656 42.445312 58.863281 42.460938 58.878906 C 43.351562 61.984375 44.628906 66.378906 44.609375 70.304688 C 44.578125 74.101562 43.320312 77.464844 39.101562 78.691406 C 37.96875 79.03125 36.789062 79.175781 35.609375 79.160156 C 33.574219 79.128906 31.632812 78.53125 29.695312 77.882812 C 27.691406 77.207031 25.703125 76.460938 23.652344 76.15625 C 21.308594 75.832031 18.496094 75.929688 15.699219 75.878906 Z M 27.902344 48.683594 C 27.269531 47.90625 26.65625 47.117188 26.011719 46.371094 C 24.328125 44.449219 22.457031 42.847656 19.53125 43.027344 C 17.285156 43.15625 15.265625 43.800781 13.792969 45.597656 C 12.757812 46.839844 12.386719 48.359375 12.097656 49.894531 C 11.789062 51.542969 11.578125 53.222656 10.882812 54.726562 C 9.996094 56.667969 8.074219 57.734375 6.570312 59.105469 C 3.628906 61.789062 2.046875 64.957031 2.980469 68.996094 C 4.046875 73.554688 7.378906 75.074219 11.273438 75.589844 C 12.417969 75.734375 13.597656 75.816406 14.8125 75.847656 C 11.820312 68.367188 14.390625 63.535156 18.253906 59.234375 C 21.421875 55.746094 25.476562 52.640625 27.902344 48.683594 Z M 28.335938 47.921875 C 27.773438 47.210938 27.222656 46.5 26.625 45.839844 C 24.78125 43.722656 22.683594 42.007812 19.480469 42.21875 C 17.007812 42.363281 14.796875 43.109375 13.164062 45.078125 C 12.03125 46.4375 11.613281 48.070312 11.289062 49.75 C 10.996094 51.332031 10.804688 52.949219 10.140625 54.386719 C 9.738281 55.277344 9.074219 55.957031 8.363281 56.585938 C 7.605469 57.246094 6.746094 57.847656 6.019531 58.507812 C 2.851562 61.402344 1.171875 64.84375 2.191406 69.191406 C 3.355469 74.152344 6.925781 75.847656 11.175781 76.414062 C 12.46875 76.59375 13.808594 76.65625 15.167969 76.6875 C 16.863281 80.488281 20.371094 81.84375 24.296875 82.457031 C 28.09375 83.054688 32.296875 82.941406 35.527344 83.847656 C 40.136719 85.125 43.996094 88.015625 48.019531 90.261719 C 52.15625 92.574219 56.457031 94.238281 61.839844 92.945312 C 67.398438 91.621094 70.710938 89.488281 72.699219 86.855469 C 74.703125 84.203125 75.398438 81.035156 75.703125 77.546875 C 76.089844 73.019531 75.816406 67.996094 77.027344 62.984375 C 78 58.960938 79.839844 54.886719 79.855469 48.84375 C 79.871094 45.289062 79.113281 43.300781 77.949219 42.234375 C 76.753906 41.152344 75.089844 41.007812 73.214844 41.21875 C 71.46875 41.410156 69.515625 41.910156 67.605469 42.136719 C 65.796875 42.347656 64.019531 42.300781 62.53125 41.410156 C 58.394531 38.9375 55.097656 35.171875 51.398438 32.28125 C 47.601562 29.308594 43.398438 27.253906 37.550781 28.304688 C 33.136719 29.097656 31.570312 32.070312 30.859375 35.640625 C 30.179688 39.019531 30.308594 42.945312 29.257812 45.886719 C 29.015625 46.597656 28.691406 47.277344 28.335938 47.921875 Z M 28.335938 47.921875 " fill-opacity="1" fill-rule="evenodd"/></g><g transform="matrix(1, 0, 0, 1, 88, 23)"><g clip-path="url(#9eb3dfbb6e)"><g fill="#ffffff" fill-opacity="1"><g transform="translate(0.816876, 38.61476)"><g><path d="M 13.859375 -5.390625 L 13.859375 0 L 10.625 0 C 8.320312 0 6.523438 -0.5625 5.234375 -1.6875 C 3.953125 -2.8125 3.3125 -4.65625 3.3125 -7.21875 L 3.3125 -15.46875 L 0.78125 -15.46875 L 0.78125 -20.734375 L 3.3125 -20.734375 L 3.3125 -25.796875 L 9.671875 -25.796875 L 9.671875 -20.734375 L 13.828125 -20.734375 L 13.828125 -15.46875 L 9.671875 -15.46875 L 9.671875 -7.140625 C 9.671875 -6.515625 9.816406 -6.066406 10.109375 -5.796875 C 10.410156 -5.523438 10.90625 -5.390625 11.59375 -5.390625 Z M 13.859375 -5.390625 "/></g></g></g><g fill="#ffffff" fill-opacity="1"><g transform="translate(17.468356, 38.61476)"><g><path d="M 11.75 0.296875 C 9.71875 0.296875 7.890625 -0.132812 6.265625 -1 C 4.640625 -1.863281 3.363281 -3.101562 2.4375 -4.71875 C 1.507812 -6.332031 1.046875 -8.21875 1.046875 -10.375 C 1.046875 -12.5 1.515625 -14.375 2.453125 -16 C 3.390625 -17.625 4.675781 -18.867188 6.3125 -19.734375 C 7.945312 -20.609375 9.785156 -21.046875 11.828125 -21.046875 C 13.859375 -21.046875 15.691406 -20.609375 17.328125 -19.734375 C 18.960938 -18.867188 20.25 -17.625 21.1875 -16 C 22.125 -14.375 22.59375 -12.5 22.59375 -10.375 C 22.59375 -8.238281 22.113281 -6.359375 21.15625 -4.734375 C 20.207031 -3.109375 18.910156 -1.863281 17.265625 -1 C 15.617188 -0.132812 13.78125 0.296875 11.75 0.296875 Z M 11.75 -5.203125 C 12.957031 -5.203125 13.988281 -5.644531 14.84375 -6.53125 C 15.695312 -7.425781 16.125 -8.707031 16.125 -10.375 C 16.125 -12.03125 15.707031 -13.300781 14.875 -14.1875 C 14.050781 -15.082031 13.035156 -15.53125 11.828125 -15.53125 C 10.585938 -15.53125 9.554688 -15.09375 8.734375 -14.21875 C 7.921875 -13.34375 7.515625 -12.0625 7.515625 -10.375 C 7.515625 -8.707031 7.914062 -7.425781 8.71875 -6.53125 C 9.519531 -5.644531 10.53125 -5.203125 11.75 -5.203125 Z M 11.75 -5.203125 "/></g></g></g><g fill="#ffffff" fill-opacity="1"><g transform="translate(42.705419, 38.61476)"><g><path d="M 28.765625 -20.96875 C 31.347656 -20.96875 33.398438 -20.1875 34.921875 -18.625 C 36.441406 -17.0625 37.203125 -14.894531 37.203125 -12.125 L 37.203125 0 L 30.890625 0 L 30.890625 -11.265625 C 30.890625 -12.597656 30.535156 -13.628906 29.828125 -14.359375 C 29.117188 -15.097656 28.144531 -15.46875 26.90625 -15.46875 C 25.664062 -15.46875 24.691406 -15.097656 23.984375 -14.359375 C 23.285156 -13.628906 22.9375 -12.597656 22.9375 -11.265625 L 22.9375 0 L 16.609375 0 L 16.609375 -11.265625 C 16.609375 -12.597656 16.253906 -13.628906 15.546875 -14.359375 C 14.847656 -15.097656 13.878906 -15.46875 12.640625 -15.46875 C 11.398438 -15.46875 10.425781 -15.097656 9.71875 -14.359375 C 9.007812 -13.628906 8.65625 -12.597656 8.65625 -11.265625 L 8.65625 0 L 2.296875 0 L 2.296875 -20.734375 L 8.65625 -20.734375 L 8.65625 -18.140625 C 9.300781 -19.003906 10.144531 -19.691406 11.1875 -20.203125 C 12.226562 -20.710938 13.40625 -20.96875 14.71875 -20.96875 C 16.28125 -20.96875 17.671875 -20.628906 18.890625 -19.953125 C 20.117188 -19.285156 21.082031 -18.332031 21.78125 -17.09375 C 22.5 -18.238281 23.476562 -19.171875 24.71875 -19.890625 C 25.957031 -20.609375 27.304688 -20.96875 28.765625 -20.96875 Z M 28.765625 -20.96875 "/></g></g></g><g fill="#ffffff" fill-opacity="1"><g transform="translate(83.626945, 38.61476)"><g><path d="M 21.859375 -10.703125 C 21.859375 -10.109375 21.820312 -9.488281 21.75 -8.84375 L 7.359375 -8.84375 C 7.460938 -7.550781 7.878906 -6.566406 8.609375 -5.890625 C 9.335938 -5.210938 10.234375 -4.875 11.296875 -4.875 C 12.878906 -4.875 13.984375 -5.539062 14.609375 -6.875 L 21.375 -6.875 C 21.03125 -5.507812 20.40625 -4.28125 19.5 -3.1875 C 18.59375 -2.101562 17.457031 -1.25 16.09375 -0.625 C 14.726562 -0.0078125 13.203125 0.296875 11.515625 0.296875 C 9.484375 0.296875 7.675781 -0.132812 6.09375 -1 C 4.507812 -1.863281 3.269531 -3.101562 2.375 -4.71875 C 1.488281 -6.332031 1.046875 -8.21875 1.046875 -10.375 C 1.046875 -12.53125 1.484375 -14.410156 2.359375 -16.015625 C 3.242188 -17.628906 4.476562 -18.867188 6.0625 -19.734375 C 7.644531 -20.609375 9.460938 -21.046875 11.515625 -21.046875 C 13.523438 -21.046875 15.3125 -20.625 16.875 -19.78125 C 18.4375 -18.9375 19.65625 -17.734375 20.53125 -16.171875 C 21.414062 -14.609375 21.859375 -12.785156 21.859375 -10.703125 Z M 15.359375 -12.375 C 15.359375 -13.46875 14.984375 -14.335938 14.234375 -14.984375 C 13.492188 -15.628906 12.566406 -15.953125 11.453125 -15.953125 C 10.378906 -15.953125 9.476562 -15.640625 8.75 -15.015625 C 8.019531 -14.398438 7.566406 -13.519531 7.390625 -12.375 Z M 15.359375 -12.375 "/></g></g></g><g fill="#ffffff" fill-opacity="1"><g transform="translate(108.083493, 38.61476)"><g><path d="M 8.65625 -17.8125 C 9.25 -18.769531 10.101562 -19.546875 11.21875 -20.140625 C 12.34375 -20.742188 13.617188 -21.046875 15.046875 -21.046875 C 16.765625 -21.046875 18.316406 -20.609375 19.703125 -19.734375 C 21.085938 -18.867188 22.179688 -17.628906 22.984375 -16.015625 C 23.796875 -14.410156 24.203125 -12.539062 24.203125 -10.40625 C 24.203125 -8.28125 23.796875 -6.40625 22.984375 -4.78125 C 22.179688 -3.15625 21.085938 -1.898438 19.703125 -1.015625 C 18.316406 -0.140625 16.765625 0.296875 15.046875 0.296875 C 13.585938 0.296875 12.3125 0.00390625 11.21875 -0.578125 C 10.132812 -1.160156 9.28125 -1.9375 8.65625 -2.90625 L 8.65625 0 L 2.296875 0 L 2.296875 -27.5 L 8.65625 -27.5 Z M 17.734375 -10.40625 C 17.734375 -11.988281 17.289062 -13.234375 16.40625 -14.140625 C 15.53125 -15.046875 14.445312 -15.5 13.15625 -15.5 C 11.894531 -15.5 10.820312 -15.039062 9.9375 -14.125 C 9.0625 -13.207031 8.625 -11.957031 8.625 -10.375 C 8.625 -8.78125 9.0625 -7.523438 9.9375 -6.609375 C 10.820312 -5.691406 11.894531 -5.234375 13.15625 -5.234375 C 14.414062 -5.234375 15.492188 -5.695312 16.390625 -6.625 C 17.285156 -7.5625 17.734375 -8.820312 17.734375 -10.40625 Z M 17.734375 -10.40625 "/></g></g></g><g fill="#ffffff" fill-opacity="1"><g transform="translate(134.881559, 38.61476)"><g><path d="M 1.046875 -10.40625 C 1.046875 -12.539062 1.445312 -14.410156 2.25 -16.015625 C 3.050781 -17.628906 4.144531 -18.867188 5.53125 -19.734375 C 6.925781 -20.609375 8.476562 -21.046875 10.1875 -21.046875 C 11.644531 -21.046875 12.925781 -20.742188 14.03125 -20.140625 C 15.132812 -19.546875 15.984375 -18.769531 16.578125 -17.8125 L 16.578125 -20.734375 L 22.9375 -20.734375 L 22.9375 0 L 16.578125 0 L 16.578125 -2.9375 C 15.960938 -1.96875 15.101562 -1.1875 14 -0.59375 C 12.894531 0 11.609375 0.296875 10.140625 0.296875 C 8.460938 0.296875 6.925781 -0.140625 5.53125 -1.015625 C 4.144531 -1.898438 3.050781 -3.15625 2.25 -4.78125 C 1.445312 -6.40625 1.046875 -8.28125 1.046875 -10.40625 Z M 16.578125 -10.375 C 16.578125 -11.957031 16.132812 -13.207031 15.25 -14.125 C 14.375 -15.039062 13.304688 -15.5 12.046875 -15.5 C 10.773438 -15.5 9.703125 -15.046875 8.828125 -14.140625 C 7.953125 -13.234375 7.515625 -11.988281 7.515625 -10.40625 C 7.515625 -8.820312 7.953125 -7.5625 8.828125 -6.625 C 9.703125 -5.695312 10.773438 -5.234375 12.046875 -5.234375 C 13.304688 -5.234375 14.375 -5.691406 15.25 -6.609375 C 16.132812 -7.523438 16.578125 -8.78125 16.578125 -10.375 Z M 16.578125 -10.375 "/></g></g></g><g fill="#ffffff" fill-opacity="1"><g transform="translate(161.679625, 38.61476)"><g><path d="M 28.765625 -20.96875 C 31.347656 -20.96875 33.398438 -20.1875 34.921875 -18.625 C 36.441406 -17.0625 37.203125 -14.894531 37.203125 -12.125 L 37.203125 0 L 30.890625 0 L 30.890625 -11.265625 C 30.890625 -12.597656 30.535156 -13.628906 29.828125 -14.359375 C 29.117188 -15.097656 28.144531 -15.46875 26.90625 -15.46875 C 25.664062 -15.46875 24.691406 -15.097656 23.984375 -14.359375 C 23.285156 -13.628906 22.9375 -12.597656 22.9375 -11.265625 L 22.9375 0 L 16.609375 0 L 16.609375 -11.265625 C 16.609375 -12.597656 16.253906 -13.628906 15.546875 -14.359375 C 14.847656 -15.097656 13.878906 -15.46875 12.640625 -15.46875 C 11.398438 -15.46875 10.425781 -15.097656 9.71875 -14.359375 C 9.007812 -13.628906 8.65625 -12.597656 8.65625 -11.265625 L 8.65625 0 L 2.296875 0 L 2.296875 -20.734375 L 8.65625 -20.734375 L 8.65625 -18.140625 C 9.300781 -19.003906 10.144531 -19.691406 11.1875 -20.203125 C 12.226562 -20.710938 13.40625 -20.96875 14.71875 -20.96875 C 16.28125 -20.96875 17.671875 -20.628906 18.890625 -19.953125 C 20.117188 -19.285156 21.082031 -18.332031 21.78125 -17.09375 C 22.5 -18.238281 23.476562 -19.171875 24.71875 -19.890625 C 25.957031 -20.609375 27.304688 -20.96875 28.765625 -20.96875 Z M 28.765625 -20.96875 "/></g></g></g><g fill="#ffffff" fill-opacity="1"><g transform="translate(202.601151, 38.61476)"><g><path d="M 8.65625 -17.8125 C 9.25 -18.769531 10.101562 -19.546875 11.21875 -20.140625 C 12.34375 -20.742188 13.617188 -21.046875 15.046875 -21.046875 C 16.765625 -21.046875 18.316406 -20.609375 19.703125 -19.734375 C 21.085938 -18.867188 22.179688 -17.628906 22.984375 -16.015625 C 23.796875 -14.410156 24.203125 -12.539062 24.203125 -10.40625 C 24.203125 -8.28125 23.796875 -6.40625 22.984375 -4.78125 C 22.179688 -3.15625 21.085938 -1.898438 19.703125 -1.015625 C 18.316406 -0.140625 16.765625 0.296875 15.046875 0.296875 C 13.585938 0.296875 12.3125 0.00390625 11.21875 -0.578125 C 10.132812 -1.160156 9.28125 -1.9375 8.65625 -2.90625 L 8.65625 0 L 2.296875 0 L 2.296875 -27.5 L 8.65625 -27.5 Z M 17.734375 -10.40625 C 17.734375 -11.988281 17.289062 -13.234375 16.40625 -14.140625 C 15.53125 -15.046875 14.445312 -15.5 13.15625 -15.5 C 11.894531 -15.5 10.820312 -15.039062 9.9375 -14.125 C 9.0625 -13.207031 8.625 -11.957031 8.625 -10.375 C 8.625 -8.78125 9.0625 -7.523438 9.9375 -6.609375 C 10.820312 -5.691406 11.894531 -5.234375 13.15625 -5.234375 C 14.414062 -5.234375 15.492188 -5.695312 16.390625 -6.625 C 17.285156 -7.5625 17.734375 -8.820312 17.734375 -10.40625 Z M 17.734375 -10.40625 "/></g></g></g><g fill="#ffffff" fill-opacity="1"><g transform="translate(229.399217, 38.61476)"><g><path d="M 5.5 -22.890625 C 4.382812 -22.890625 3.472656 -23.21875 2.765625 -23.875 C 2.054688 -24.539062 1.703125 -25.351562 1.703125 -26.3125 C 1.703125 -27.300781 2.054688 -28.125 2.765625 -28.78125 C 3.472656 -29.445312 4.382812 -29.78125 5.5 -29.78125 C 6.59375 -29.78125 7.488281 -29.445312 8.1875 -28.78125 C 8.894531 -28.125 9.25 -27.300781 9.25 -26.3125 C 9.25 -25.351562 8.894531 -24.539062 8.1875 -23.875 C 7.488281 -23.21875 6.59375 -22.890625 5.5 -22.890625 Z M 8.65625 -20.734375 L 8.65625 0 L 2.296875 0 L 2.296875 -20.734375 Z M 8.65625 -20.734375 "/></g></g></g><g fill="#ffffff" fill-opacity="1"><g transform="translate(241.925159, 38.61476)"><g><path d="M 14.984375 0 L 8.65625 -8.703125 L 8.65625 0 L 2.296875 0 L 2.296875 -27.5 L 8.65625 -27.5 L 8.65625 -12.296875 L 14.9375 -20.734375 L 22.78125 -20.734375 L 14.15625 -10.328125 L 22.859375 0 Z M 14.984375 0 "/></g></g></g><g fill="#ffffff" fill-opacity="1"><g transform="translate(266.456059, 38.61476)"><g><path d="M 21.859375 -10.703125 C 21.859375 -10.109375 21.820312 -9.488281 21.75 -8.84375 L 7.359375 -8.84375 C 7.460938 -7.550781 7.878906 -6.566406 8.609375 -5.890625 C 9.335938 -5.210938 10.234375 -4.875 11.296875 -4.875 C 12.878906 -4.875 13.984375 -5.539062 14.609375 -6.875 L 21.375 -6.875 C 21.03125 -5.507812 20.40625 -4.28125 19.5 -3.1875 C 18.59375 -2.101562 17.457031 -1.25 16.09375 -0.625 C 14.726562 -0.0078125 13.203125 0.296875 11.515625 0.296875 C 9.484375 0.296875 7.675781 -0.132812 6.09375 -1 C 4.507812 -1.863281 3.269531 -3.101562 2.375 -4.71875 C 1.488281 -6.332031 1.046875 -8.21875 1.046875 -10.375 C 1.046875 -12.53125 1.484375 -14.410156 2.359375 -16.015625 C 3.242188 -17.628906 4.476562 -18.867188 6.0625 -19.734375 C 7.644531 -20.609375 9.460938 -21.046875 11.515625 -21.046875 C 13.523438 -21.046875 15.3125 -20.625 16.875 -19.78125 C 18.4375 -18.9375 19.65625 -17.734375 20.53125 -16.171875 C 21.414062 -14.609375 21.859375 -12.785156 21.859375 -10.703125 Z M 15.359375 -12.375 C 15.359375 -13.46875 14.984375 -14.335938 14.234375 -14.984375 C 13.492188 -15.628906 12.566406 -15.953125 11.453125 -15.953125 C 10.378906 -15.953125 9.476562 -15.640625 8.75 -15.015625 C 8.019531 -14.398438 7.566406 -13.519531 7.390625 -12.375 Z M 15.359375 -12.375 "/></g></g></g></g></g><g transform="matrix(1, 0, 0, 1, 88, 73)"><g clip-path="url(#71e7907fcd)"><g fill="#ffffff" fill-opacity="1"><g transform="translate(0.816876, 16.682732)"><g><path d="M 11.53125 -7.140625 L 9.078125 -7.140625 L 8.53125 -4.828125 L 10.734375 -4.828125 L 10.734375 -3.140625 L 8.125 -3.140625 L 7.359375 0 L 5.53125 0 L 6.328125 -3.140625 L 4.3125 -3.140625 L 3.546875 0 L 1.734375 0 L 2.5 -3.140625 L 0.625 -3.140625 L 0.625 -4.828125 L 2.90625 -4.828125 L 3.46875 -7.140625 L 1.40625 -7.140625 L 1.40625 -8.71875 L 3.859375 -8.71875 L 4.640625 -11.953125 L 6.46875 -11.953125 L 5.65625 -8.71875 L 7.671875 -8.71875 L 8.453125 -11.953125 L 10.265625 -11.953125 L 9.46875 -8.71875 L 11.53125 -8.71875 Z M 6.734375 -4.828125 L 7.265625 -7.140625 L 5.265625 -7.140625 L 4.71875 -4.828125 Z M 6.734375 -4.828125 "/></g></g></g><g fill="#ffffff" fill-opacity="1"><g transform="translate(13.661415, 16.682732)"><g><path d="M 0.515625 -6.0625 C 0.515625 -6.789062 0.644531 -7.507812 0.90625 -8.21875 C 1.175781 -8.9375 1.5625 -9.570312 2.0625 -10.125 C 2.570312 -10.6875 3.191406 -11.140625 3.921875 -11.484375 C 4.648438 -11.835938 5.476562 -12.015625 6.40625 -12.015625 C 7.507812 -12.015625 8.460938 -11.769531 9.265625 -11.28125 C 10.066406 -10.800781 10.664062 -10.175781 11.0625 -9.40625 L 9.265625 -8.171875 C 9.109375 -8.515625 8.914062 -8.800781 8.6875 -9.03125 C 8.46875 -9.257812 8.226562 -9.441406 7.96875 -9.578125 C 7.71875 -9.710938 7.453125 -9.8125 7.171875 -9.875 C 6.890625 -9.9375 6.613281 -9.96875 6.34375 -9.96875 C 5.757812 -9.96875 5.25 -9.847656 4.8125 -9.609375 C 4.382812 -9.367188 4.023438 -9.0625 3.734375 -8.6875 C 3.453125 -8.3125 3.238281 -7.882812 3.09375 -7.40625 C 2.945312 -6.9375 2.875 -6.460938 2.875 -5.984375 C 2.875 -5.460938 2.957031 -4.957031 3.125 -4.46875 C 3.289062 -3.976562 3.53125 -3.546875 3.84375 -3.171875 C 4.15625 -2.804688 4.523438 -2.507812 4.953125 -2.28125 C 5.390625 -2.0625 5.863281 -1.953125 6.375 -1.953125 C 6.644531 -1.953125 6.925781 -1.984375 7.21875 -2.046875 C 7.507812 -2.117188 7.785156 -2.226562 8.046875 -2.375 C 8.316406 -2.519531 8.5625 -2.707031 8.78125 -2.9375 C 9.007812 -3.164062 9.191406 -3.441406 9.328125 -3.765625 L 11.21875 -2.671875 C 11.03125 -2.222656 10.757812 -1.828125 10.40625 -1.484375 C 10.050781 -1.140625 9.648438 -0.847656 9.203125 -0.609375 C 8.765625 -0.378906 8.289062 -0.203125 7.78125 -0.078125 C 7.28125 0.0351562 6.789062 0.09375 6.3125 0.09375 C 5.457031 0.09375 4.675781 -0.0820312 3.96875 -0.4375 C 3.257812 -0.789062 2.648438 -1.253906 2.140625 -1.828125 C 1.628906 -2.410156 1.226562 -3.066406 0.9375 -3.796875 C 0.65625 -4.535156 0.515625 -5.289062 0.515625 -6.0625 Z M 0.515625 -6.0625 "/></g></g></g><g fill="#ffffff" fill-opacity="1"><g transform="translate(25.916757, 16.682732)"><g><path d="M 5.09375 0.171875 C 4.375 0.171875 3.726562 0.046875 3.15625 -0.203125 C 2.59375 -0.453125 2.109375 -0.785156 1.703125 -1.203125 C 1.304688 -1.617188 1 -2.101562 0.78125 -2.65625 C 0.570312 -3.207031 0.46875 -3.785156 0.46875 -4.390625 C 0.46875 -5.003906 0.570312 -5.585938 0.78125 -6.140625 C 1 -6.691406 1.304688 -7.175781 1.703125 -7.59375 C 2.109375 -8.019531 2.59375 -8.351562 3.15625 -8.59375 C 3.726562 -8.84375 4.375 -8.96875 5.09375 -8.96875 C 5.8125 -8.96875 6.453125 -8.84375 7.015625 -8.59375 C 7.585938 -8.351562 8.070312 -8.019531 8.46875 -7.59375 C 8.875 -7.175781 9.179688 -6.691406 9.390625 -6.140625 C 9.597656 -5.585938 9.703125 -5.003906 9.703125 -4.390625 C 9.703125 -3.785156 9.597656 -3.207031 9.390625 -2.65625 C 9.179688 -2.101562 8.878906 -1.617188 8.484375 -1.203125 C 8.085938 -0.785156 7.601562 -0.453125 7.03125 -0.203125 C 6.457031 0.046875 5.8125 0.171875 5.09375 0.171875 Z M 2.796875 -4.390625 C 2.796875 -3.992188 2.851562 -3.632812 2.96875 -3.3125 C 3.082031 -3 3.242188 -2.722656 3.453125 -2.484375 C 3.660156 -2.253906 3.90625 -2.070312 4.1875 -1.9375 C 4.46875 -1.8125 4.769531 -1.75 5.09375 -1.75 C 5.425781 -1.75 5.726562 -1.8125 6 -1.9375 C 6.28125 -2.070312 6.523438 -2.253906 6.734375 -2.484375 C 6.941406 -2.722656 7.101562 -3.003906 7.21875 -3.328125 C 7.34375 -3.648438 7.40625 -4.007812 7.40625 -4.40625 C 7.40625 -4.789062 7.34375 -5.144531 7.21875 -5.46875 C 7.101562 -5.789062 6.941406 -6.066406 6.734375 -6.296875 C 6.523438 -6.535156 6.28125 -6.71875 6 -6.84375 C 5.726562 -6.976562 5.425781 -7.046875 5.09375 -7.046875 C 4.769531 -7.046875 4.46875 -6.976562 4.1875 -6.84375 C 3.90625 -6.707031 3.660156 -6.519531 3.453125 -6.28125 C 3.242188 -6.050781 3.082031 -5.773438 2.96875 -5.453125 C 2.851562 -5.128906 2.796875 -4.773438 2.796875 -4.390625 Z M 2.796875 -4.390625 "/></g></g></g><g fill="#ffffff" fill-opacity="1"><g transform="translate(36.825364, 16.682732)"><g><path d="M 9.21875 0 L 6.96875 0 L 6.96875 -4.953125 C 6.96875 -5.648438 6.84375 -6.160156 6.59375 -6.484375 C 6.34375 -6.816406 6 -6.984375 5.5625 -6.984375 C 5.34375 -6.984375 5.113281 -6.9375 4.875 -6.84375 C 4.644531 -6.757812 4.425781 -6.632812 4.21875 -6.46875 C 4.007812 -6.300781 3.820312 -6.101562 3.65625 -5.875 C 3.488281 -5.65625 3.363281 -5.414062 3.28125 -5.15625 L 3.28125 0 L 1.03125 0 L 1.03125 -8.8125 L 3.0625 -8.8125 L 3.0625 -7.1875 C 3.382812 -7.75 3.851562 -8.1875 4.46875 -8.5 C 5.09375 -8.8125 5.789062 -8.96875 6.5625 -8.96875 C 7.113281 -8.96875 7.5625 -8.863281 7.90625 -8.65625 C 8.257812 -8.457031 8.53125 -8.195312 8.71875 -7.875 C 8.90625 -7.550781 9.035156 -7.179688 9.109375 -6.765625 C 9.179688 -6.347656 9.21875 -5.925781 9.21875 -5.5 Z M 9.21875 0 "/></g></g></g><g fill="#ffffff" fill-opacity="1"><g transform="translate(47.700295, 16.682732)"><g><path d="M 4.359375 0.171875 C 3.617188 0.171875 2.894531 0.0546875 2.1875 -0.171875 C 1.476562 -0.410156 0.875 -0.75 0.375 -1.1875 L 1.21875 -2.609375 C 1.75 -2.222656 2.269531 -1.929688 2.78125 -1.734375 C 3.289062 -1.546875 3.800781 -1.453125 4.3125 -1.453125 C 4.757812 -1.453125 5.109375 -1.535156 5.359375 -1.703125 C 5.617188 -1.867188 5.75 -2.109375 5.75 -2.421875 C 5.75 -2.734375 5.597656 -2.960938 5.296875 -3.109375 C 4.992188 -3.253906 4.5 -3.425781 3.8125 -3.625 C 3.25 -3.78125 2.765625 -3.929688 2.359375 -4.078125 C 1.953125 -4.222656 1.625 -4.382812 1.375 -4.5625 C 1.132812 -4.75 0.957031 -4.960938 0.84375 -5.203125 C 0.726562 -5.441406 0.671875 -5.734375 0.671875 -6.078125 C 0.671875 -6.523438 0.753906 -6.925781 0.921875 -7.28125 C 1.097656 -7.644531 1.34375 -7.953125 1.65625 -8.203125 C 1.976562 -8.453125 2.347656 -8.644531 2.765625 -8.78125 C 3.191406 -8.914062 3.648438 -8.984375 4.140625 -8.984375 C 4.796875 -8.984375 5.410156 -8.882812 5.984375 -8.6875 C 6.566406 -8.5 7.101562 -8.195312 7.59375 -7.78125 L 6.6875 -6.40625 C 6.226562 -6.75 5.789062 -7 5.375 -7.15625 C 4.957031 -7.3125 4.539062 -7.390625 4.125 -7.390625 C 3.738281 -7.390625 3.414062 -7.3125 3.15625 -7.15625 C 2.90625 -7 2.78125 -6.742188 2.78125 -6.390625 C 2.78125 -6.234375 2.8125 -6.101562 2.875 -6 C 2.9375 -5.90625 3.03125 -5.816406 3.15625 -5.734375 C 3.289062 -5.660156 3.46875 -5.585938 3.6875 -5.515625 C 3.90625 -5.441406 4.179688 -5.363281 4.515625 -5.28125 C 5.117188 -5.125 5.632812 -4.96875 6.0625 -4.8125 C 6.5 -4.65625 6.851562 -4.472656 7.125 -4.265625 C 7.394531 -4.066406 7.59375 -3.835938 7.71875 -3.578125 C 7.851562 -3.316406 7.921875 -3 7.921875 -2.625 C 7.921875 -1.757812 7.597656 -1.078125 6.953125 -0.578125 C 6.316406 -0.078125 5.453125 0.171875 4.359375 0.171875 Z M 4.359375 0.171875 "/></g></g></g><g fill="#ffffff" fill-opacity="1"><g transform="translate(56.773959, 16.682732)"><g><path d="M 6.3125 -0.453125 C 6.007812 -0.316406 5.640625 -0.179688 5.203125 -0.046875 C 4.765625 0.0859375 4.300781 0.15625 3.8125 0.15625 C 3.5 0.15625 3.207031 0.113281 2.9375 0.03125 C 2.664062 -0.0390625 2.425781 -0.164062 2.21875 -0.34375 C 2.007812 -0.519531 1.84375 -0.742188 1.71875 -1.015625 C 1.59375 -1.296875 1.53125 -1.628906 1.53125 -2.015625 L 1.53125 -7.078125 L 0.375 -7.078125 L 0.375 -8.8125 L 1.53125 -8.8125 L 1.53125 -11.671875 L 3.78125 -11.671875 L 3.78125 -8.8125 L 5.640625 -8.8125 L 5.640625 -7.078125 L 3.78125 -7.078125 L 3.78125 -2.78125 C 3.78125 -2.46875 3.863281 -2.242188 4.03125 -2.109375 C 4.195312 -1.984375 4.394531 -1.921875 4.625 -1.921875 C 4.863281 -1.921875 5.09375 -1.957031 5.3125 -2.03125 C 5.539062 -2.113281 5.722656 -2.179688 5.859375 -2.234375 Z M 6.3125 -0.453125 "/></g></g></g><g fill="#ffffff" fill-opacity="1"><g transform="translate(63.945353, 16.682732)"><g><path d="M 6.28125 -6.859375 C 5.59375 -6.847656 4.976562 -6.71875 4.4375 -6.46875 C 3.90625 -6.21875 3.519531 -5.835938 3.28125 -5.328125 L 3.28125 0 L 1.03125 0 L 1.03125 -8.8125 L 3.09375 -8.8125 L 3.09375 -6.9375 C 3.25 -7.238281 3.429688 -7.507812 3.640625 -7.75 C 3.859375 -7.988281 4.09375 -8.195312 4.34375 -8.375 C 4.59375 -8.5625 4.84375 -8.703125 5.09375 -8.796875 C 5.34375 -8.890625 5.585938 -8.9375 5.828125 -8.9375 C 5.941406 -8.9375 6.03125 -8.9375 6.09375 -8.9375 C 6.15625 -8.9375 6.21875 -8.929688 6.28125 -8.921875 Z M 6.28125 -6.859375 "/></g></g></g><g fill="#ffffff" fill-opacity="1"><g transform="translate(71.167249, 16.682732)"><g><path d="M 3.71875 0.171875 C 2.8125 0.171875 2.117188 -0.117188 1.640625 -0.703125 C 1.171875 -1.285156 0.9375 -2.148438 0.9375 -3.296875 L 0.9375 -8.8125 L 3.203125 -8.8125 L 3.203125 -3.78125 C 3.203125 -2.425781 3.6875 -1.75 4.65625 -1.75 C 5.09375 -1.75 5.515625 -1.878906 5.921875 -2.140625 C 6.335938 -2.410156 6.675781 -2.8125 6.9375 -3.34375 L 6.9375 -8.8125 L 9.1875 -8.8125 L 9.1875 -2.59375 C 9.1875 -2.351562 9.226562 -2.179688 9.3125 -2.078125 C 9.394531 -1.984375 9.535156 -1.929688 9.734375 -1.921875 L 9.734375 0 C 9.503906 0.0390625 9.3125 0.0664062 9.15625 0.078125 C 9.007812 0.0859375 8.875 0.09375 8.75 0.09375 C 8.34375 0.09375 8.015625 0.00390625 7.765625 -0.171875 C 7.515625 -0.359375 7.363281 -0.613281 7.3125 -0.9375 L 7.265625 -1.65625 C 6.878906 -1.039062 6.375 -0.582031 5.75 -0.28125 C 5.132812 0.0195312 4.457031 0.171875 3.71875 0.171875 Z M 3.71875 0.171875 "/></g></g></g><g clip-path="url(#857a77f9b6)"><g fill="#ffffff" fill-opacity="1"><g transform="translate(82.277859, 16.682732)"><g><path d="M 1.21875 1.71875 C 1.40625 1.769531 1.585938 1.8125 1.765625 1.84375 C 1.941406 1.875 2.09375 1.890625 2.21875 1.890625 C 2.363281 1.890625 2.5 1.859375 2.625 1.796875 C 2.75 1.742188 2.859375 1.644531 2.953125 1.5 C 3.054688 1.363281 3.160156 1.171875 3.265625 0.921875 C 3.367188 0.679688 3.472656 0.375 3.578125 0 L 0.09375 -8.8125 L 2.421875 -8.8125 L 4.8125 -1.953125 L 6.9375 -8.8125 L 9.046875 -8.8125 L 5.34375 1.75 C 5.132812 2.363281 4.769531 2.867188 4.25 3.265625 C 3.738281 3.660156 3.101562 3.859375 2.34375 3.859375 C 2.15625 3.859375 1.96875 3.84375 1.78125 3.8125 C 1.601562 3.78125 1.414062 3.734375 1.21875 3.671875 Z M 1.21875 1.71875 "/></g></g></g></g><g fill="#ffffff" fill-opacity="1"><g transform="translate(92.243737, 16.682732)"><g><path d="M 5.109375 0.171875 C 4.410156 0.171875 3.773438 0.0507812 3.203125 -0.1875 C 2.628906 -0.4375 2.140625 -0.765625 1.734375 -1.171875 C 1.328125 -1.585938 1.015625 -2.070312 0.796875 -2.625 C 0.578125 -3.175781 0.46875 -3.753906 0.46875 -4.359375 C 0.46875 -4.984375 0.570312 -5.570312 0.78125 -6.125 C 1 -6.6875 1.3125 -7.175781 1.71875 -7.59375 C 2.125 -8.019531 2.613281 -8.351562 3.1875 -8.59375 C 3.769531 -8.84375 4.414062 -8.96875 5.125 -8.96875 C 5.84375 -8.96875 6.484375 -8.84375 7.046875 -8.59375 C 7.617188 -8.351562 8.101562 -8.023438 8.5 -7.609375 C 8.90625 -7.191406 9.210938 -6.707031 9.421875 -6.15625 C 9.628906 -5.601562 9.734375 -5.03125 9.734375 -4.4375 C 9.734375 -4.289062 9.726562 -4.148438 9.71875 -4.015625 C 9.707031 -3.878906 9.691406 -3.769531 9.671875 -3.6875 L 2.859375 -3.6875 C 2.890625 -3.332031 2.972656 -3.019531 3.109375 -2.75 C 3.242188 -2.488281 3.414062 -2.257812 3.625 -2.0625 C 3.84375 -1.875 4.085938 -1.726562 4.359375 -1.625 C 4.628906 -1.53125 4.910156 -1.484375 5.203125 -1.484375 C 5.648438 -1.484375 6.070312 -1.59375 6.46875 -1.8125 C 6.863281 -2.03125 7.132812 -2.316406 7.28125 -2.671875 L 9.21875 -2.140625 C 8.894531 -1.460938 8.375 -0.90625 7.65625 -0.46875 C 6.945312 -0.0390625 6.097656 0.171875 5.109375 0.171875 Z M 7.40625 -5.15625 C 7.34375 -5.8125 7.097656 -6.335938 6.671875 -6.734375 C 6.242188 -7.140625 5.71875 -7.34375 5.09375 -7.34375 C 4.789062 -7.34375 4.507812 -7.285156 4.25 -7.171875 C 3.988281 -7.066406 3.753906 -6.914062 3.546875 -6.71875 C 3.347656 -6.53125 3.179688 -6.300781 3.046875 -6.03125 C 2.921875 -5.769531 2.847656 -5.476562 2.828125 -5.15625 Z M 7.40625 -5.15625 "/></g></g></g><g fill="#ffffff" fill-opacity="1"><g transform="translate(103.034505, 16.682732)"><g><path d="M 9.21875 0 L 6.96875 0 L 6.96875 -4.953125 C 6.96875 -5.648438 6.84375 -6.160156 6.59375 -6.484375 C 6.34375 -6.816406 6 -6.984375 5.5625 -6.984375 C 5.34375 -6.984375 5.113281 -6.9375 4.875 -6.84375 C 4.644531 -6.757812 4.425781 -6.632812 4.21875 -6.46875 C 4.007812 -6.300781 3.820312 -6.101562 3.65625 -5.875 C 3.488281 -5.65625 3.363281 -5.414062 3.28125 -5.15625 L 3.28125 0 L 1.03125 0 L 1.03125 -8.8125 L 3.0625 -8.8125 L 3.0625 -7.1875 C 3.382812 -7.75 3.851562 -8.1875 4.46875 -8.5 C 5.09375 -8.8125 5.789062 -8.96875 6.5625 -8.96875 C 7.113281 -8.96875 7.5625 -8.863281 7.90625 -8.65625 C 8.257812 -8.457031 8.53125 -8.195312 8.71875 -7.875 C 8.90625 -7.550781 9.035156 -7.179688 9.109375 -6.765625 C 9.179688 -6.347656 9.21875 -5.925781 9.21875 -5.5 Z M 9.21875 0 "/></g></g></g><g fill="#ffffff" fill-opacity="1"><g transform="translate(113.909436, 16.682732)"><g><path d="M 4.671875 0.171875 C 4.066406 0.171875 3.503906 0.0546875 2.984375 -0.171875 C 2.472656 -0.410156 2.03125 -0.738281 1.65625 -1.15625 C 1.289062 -1.570312 1.003906 -2.054688 0.796875 -2.609375 C 0.585938 -3.171875 0.484375 -3.769531 0.484375 -4.40625 C 0.484375 -5.050781 0.582031 -5.644531 0.78125 -6.1875 C 0.976562 -6.738281 1.25 -7.222656 1.59375 -7.640625 C 1.945312 -8.054688 2.363281 -8.378906 2.84375 -8.609375 C 3.320312 -8.847656 3.847656 -8.96875 4.421875 -8.96875 C 5.078125 -8.96875 5.664062 -8.8125 6.1875 -8.5 C 6.707031 -8.1875 7.113281 -7.773438 7.40625 -7.265625 L 7.40625 -12.28125 L 9.65625 -12.28125 L 9.65625 -2.59375 C 9.65625 -2.351562 9.691406 -2.179688 9.765625 -2.078125 C 9.847656 -1.984375 9.988281 -1.929688 10.1875 -1.921875 L 10.1875 0 C 9.789062 0.0820312 9.46875 0.125 9.21875 0.125 C 8.8125 0.125 8.476562 0.0234375 8.21875 -0.171875 C 7.96875 -0.378906 7.828125 -0.644531 7.796875 -0.96875 L 7.734375 -1.53125 C 7.410156 -0.96875 6.972656 -0.539062 6.421875 -0.25 C 5.867188 0.03125 5.285156 0.171875 4.671875 0.171875 Z M 5.265625 -1.75 C 5.484375 -1.75 5.703125 -1.785156 5.921875 -1.859375 C 6.148438 -1.929688 6.359375 -2.035156 6.546875 -2.171875 C 6.734375 -2.304688 6.898438 -2.460938 7.046875 -2.640625 C 7.203125 -2.816406 7.320312 -3.015625 7.40625 -3.234375 L 7.40625 -5.328125 C 7.3125 -5.578125 7.179688 -5.804688 7.015625 -6.015625 C 6.859375 -6.222656 6.675781 -6.398438 6.46875 -6.546875 C 6.257812 -6.703125 6.039062 -6.820312 5.8125 -6.90625 C 5.582031 -7 5.351562 -7.046875 5.125 -7.046875 C 4.789062 -7.046875 4.476562 -6.972656 4.1875 -6.828125 C 3.90625 -6.679688 3.660156 -6.484375 3.453125 -6.234375 C 3.253906 -5.984375 3.097656 -5.691406 2.984375 -5.359375 C 2.878906 -5.035156 2.828125 -4.703125 2.828125 -4.359375 C 2.828125 -3.984375 2.890625 -3.640625 3.015625 -3.328125 C 3.140625 -3.015625 3.304688 -2.738281 3.515625 -2.5 C 3.734375 -2.269531 3.988281 -2.085938 4.28125 -1.953125 C 4.582031 -1.816406 4.910156 -1.75 5.265625 -1.75 Z M 5.265625 -1.75 "/></g></g></g><g fill="#ffffff" fill-opacity="1"><g transform="translate(125.474579, 16.682732)"><g><path d="M 5.09375 0.171875 C 4.375 0.171875 3.726562 0.046875 3.15625 -0.203125 C 2.59375 -0.453125 2.109375 -0.785156 1.703125 -1.203125 C 1.304688 -1.617188 1 -2.101562 0.78125 -2.65625 C 0.570312 -3.207031 0.46875 -3.785156 0.46875 -4.390625 C 0.46875 -5.003906 0.570312 -5.585938 0.78125 -6.140625 C 1 -6.691406 1.304688 -7.175781 1.703125 -7.59375 C 2.109375 -8.019531 2.59375 -8.351562 3.15625 -8.59375 C 3.726562 -8.84375 4.375 -8.96875 5.09375 -8.96875 C 5.8125 -8.96875 6.453125 -8.84375 7.015625 -8.59375 C 7.585938 -8.351562 8.070312 -8.019531 8.46875 -7.59375 C 8.875 -7.175781 9.179688 -6.691406 9.390625 -6.140625 C 9.597656 -5.585938 9.703125 -5.003906 9.703125 -4.390625 C 9.703125 -3.785156 9.597656 -3.207031 9.390625 -2.65625 C 9.179688 -2.101562 8.878906 -1.617188 8.484375 -1.203125 C 8.085938 -0.785156 7.601562 -0.453125 7.03125 -0.203125 C 6.457031 0.046875 5.8125 0.171875 5.09375 0.171875 Z M 2.796875 -4.390625 C 2.796875 -3.992188 2.851562 -3.632812 2.96875 -3.3125 C 3.082031 -3 3.242188 -2.722656 3.453125 -2.484375 C 3.660156 -2.253906 3.90625 -2.070312 4.1875 -1.9375 C 4.46875 -1.8125 4.769531 -1.75 5.09375 -1.75 C 5.425781 -1.75 5.726562 -1.8125 6 -1.9375 C 6.28125 -2.070312 6.523438 -2.253906 6.734375 -2.484375 C 6.941406 -2.722656 7.101562 -3.003906 7.21875 -3.328125 C 7.34375 -3.648438 7.40625 -4.007812 7.40625 -4.40625 C 7.40625 -4.789062 7.34375 -5.144531 7.21875 -5.46875 C 7.101562 -5.789062 6.941406 -6.066406 6.734375 -6.296875 C 6.523438 -6.535156 6.28125 -6.71875 6 -6.84375 C 5.726562 -6.976562 5.425781 -7.046875 5.09375 -7.046875 C 4.769531 -7.046875 4.46875 -6.976562 4.1875 -6.84375 C 3.90625 -6.707031 3.660156 -6.519531 3.453125 -6.28125 C 3.242188 -6.050781 3.082031 -5.773438 2.96875 -5.453125 C 2.851562 -5.128906 2.796875 -4.773438 2.796875 -4.390625 Z M 2.796875 -4.390625 "/></g></g></g><g fill="#ffffff" fill-opacity="1"><g transform="translate(136.383186, 16.682732)"><g><path d="M 0.515625 -6.0625 C 0.515625 -6.789062 0.644531 -7.507812 0.90625 -8.21875 C 1.175781 -8.9375 1.5625 -9.570312 2.0625 -10.125 C 2.570312 -10.6875 3.191406 -11.140625 3.921875 -11.484375 C 4.648438 -11.835938 5.476562 -12.015625 6.40625 -12.015625 C 7.507812 -12.015625 8.460938 -11.769531 9.265625 -11.28125 C 10.066406 -10.800781 10.664062 -10.175781 11.0625 -9.40625 L 9.265625 -8.171875 C 9.109375 -8.515625 8.914062 -8.800781 8.6875 -9.03125 C 8.46875 -9.257812 8.226562 -9.441406 7.96875 -9.578125 C 7.71875 -9.710938 7.453125 -9.8125 7.171875 -9.875 C 6.890625 -9.9375 6.613281 -9.96875 6.34375 -9.96875 C 5.757812 -9.96875 5.25 -9.847656 4.8125 -9.609375 C 4.382812 -9.367188 4.023438 -9.0625 3.734375 -8.6875 C 3.453125 -8.3125 3.238281 -7.882812 3.09375 -7.40625 C 2.945312 -6.9375 2.875 -6.460938 2.875 -5.984375 C 2.875 -5.460938 2.957031 -4.957031 3.125 -4.46875 C 3.289062 -3.976562 3.53125 -3.546875 3.84375 -3.171875 C 4.15625 -2.804688 4.523438 -2.507812 4.953125 -2.28125 C 5.390625 -2.0625 5.863281 -1.953125 6.375 -1.953125 C 6.644531 -1.953125 6.925781 -1.984375 7.21875 -2.046875 C 7.507812 -2.117188 7.785156 -2.226562 8.046875 -2.375 C 8.316406 -2.519531 8.5625 -2.707031 8.78125 -2.9375 C 9.007812 -3.164062 9.191406 -3.441406 9.328125 -3.765625 L 11.21875 -2.671875 C 11.03125 -2.222656 10.757812 -1.828125 10.40625 -1.484375 C 10.050781 -1.140625 9.648438 -0.847656 9.203125 -0.609375 C 8.765625 -0.378906 8.289062 -0.203125 7.78125 -0.078125 C 7.28125 0.0351562 6.789062 0.09375 6.3125 0.09375 C 5.457031 0.09375 4.675781 -0.0820312 3.96875 -0.4375 C 3.257812 -0.789062 2.648438 -1.253906 2.140625 -1.828125 C 1.628906 -2.410156 1.226562 -3.066406 0.9375 -3.796875 C 0.65625 -4.535156 0.515625 -5.289062 0.515625 -6.0625 Z M 0.515625 -6.0625 "/></g></g></g><g fill="#ffffff" fill-opacity="1"><g transform="translate(148.638527, 16.682732)"><g><path d="M 1.03125 0 L 1.03125 -8.8125 L 3.28125 -8.8125 L 3.28125 0 Z M 1.03125 -10.046875 L 1.03125 -12.28125 L 3.28125 -12.28125 L 3.28125 -10.046875 Z M 1.03125 -10.046875 "/></g></g></g><g fill="#ffffff" fill-opacity="1"><g transform="translate(153.638298, 16.682732)"><g><path d="M 3.71875 0.171875 C 2.8125 0.171875 2.117188 -0.117188 1.640625 -0.703125 C 1.171875 -1.285156 0.9375 -2.148438 0.9375 -3.296875 L 0.9375 -8.8125 L 3.203125 -8.8125 L 3.203125 -3.78125 C 3.203125 -2.425781 3.6875 -1.75 4.65625 -1.75 C 5.09375 -1.75 5.515625 -1.878906 5.921875 -2.140625 C 6.335938 -2.410156 6.675781 -2.8125 6.9375 -3.34375 L 6.9375 -8.8125 L 9.1875 -8.8125 L 9.1875 -2.59375 C 9.1875 -2.351562 9.226562 -2.179688 9.3125 -2.078125 C 9.394531 -1.984375 9.535156 -1.929688 9.734375 -1.921875 L 9.734375 0 C 9.503906 0.0390625 9.3125 0.0664062 9.15625 0.078125 C 9.007812 0.0859375 8.875 0.09375 8.75 0.09375 C 8.34375 0.09375 8.015625 0.00390625 7.765625 -0.171875 C 7.515625 -0.359375 7.363281 -0.613281 7.3125 -0.9375 L 7.265625 -1.65625 C 6.878906 -1.039062 6.375 -0.582031 5.75 -0.28125 C 5.132812 0.0195312 4.457031 0.171875 3.71875 0.171875 Z M 3.71875 0.171875 "/></g></g></g><g fill="#ffffff" fill-opacity="1"><g transform="translate(164.748908, 16.682732)"><g><path d="M 4.671875 0.171875 C 4.066406 0.171875 3.503906 0.0546875 2.984375 -0.171875 C 2.472656 -0.410156 2.03125 -0.738281 1.65625 -1.15625 C 1.289062 -1.570312 1.003906 -2.054688 0.796875 -2.609375 C 0.585938 -3.171875 0.484375 -3.769531 0.484375 -4.40625 C 0.484375 -5.050781 0.582031 -5.644531 0.78125 -6.1875 C 0.976562 -6.738281 1.25 -7.222656 1.59375 -7.640625 C 1.945312 -8.054688 2.363281 -8.378906 2.84375 -8.609375 C 3.320312 -8.847656 3.847656 -8.96875 4.421875 -8.96875 C 5.078125 -8.96875 5.664062 -8.8125 6.1875 -8.5 C 6.707031 -8.1875 7.113281 -7.773438 7.40625 -7.265625 L 7.40625 -12.28125 L 9.65625 -12.28125 L 9.65625 -2.59375 C 9.65625 -2.351562 9.691406 -2.179688 9.765625 -2.078125 C 9.847656 -1.984375 9.988281 -1.929688 10.1875 -1.921875 L 10.1875 0 C 9.789062 0.0820312 9.46875 0.125 9.21875 0.125 C 8.8125 0.125 8.476562 0.0234375 8.21875 -0.171875 C 7.96875 -0.378906 7.828125 -0.644531 7.796875 -0.96875 L 7.734375 -1.53125 C 7.410156 -0.96875 6.972656 -0.539062 6.421875 -0.25 C 5.867188 0.03125 5.285156 0.171875 4.671875 0.171875 Z M 5.265625 -1.75 C 5.484375 -1.75 5.703125 -1.785156 5.921875 -1.859375 C 6.148438 -1.929688 6.359375 -2.035156 6.546875 -2.171875 C 6.734375 -2.304688 6.898438 -2.460938 7.046875 -2.640625 C 7.203125 -2.816406 7.320312 -3.015625 7.40625 -3.234375 L 7.40625 -5.328125 C 7.3125 -5.578125 7.179688 -5.804688 7.015625 -6.015625 C 6.859375 -6.222656 6.675781 -6.398438 6.46875 -6.546875 C 6.257812 -6.703125 6.039062 -6.820312 5.8125 -6.90625 C 5.582031 -7 5.351562 -7.046875 5.125 -7.046875 C 4.789062 -7.046875 4.476562 -6.972656 4.1875 -6.828125 C 3.90625 -6.679688 3.660156 -6.484375 3.453125 -6.234375 C 3.253906 -5.984375 3.097656 -5.691406 2.984375 -5.359375 C 2.878906 -5.035156 2.828125 -4.703125 2.828125 -4.359375 C 2.828125 -3.984375 2.890625 -3.640625 3.015625 -3.328125 C 3.140625 -3.015625 3.304688 -2.738281 3.515625 -2.5 C 3.734375 -2.269531 3.988281 -2.085938 4.28125 -1.953125 C 4.582031 -1.816406 4.910156 -1.75 5.265625 -1.75 Z M 5.265625 -1.75 "/></g></g></g><g fill="#ffffff" fill-opacity="1"><g transform="translate(176.314051, 16.682732)"><g><path d="M 3.4375 0.171875 C 3.007812 0.171875 2.609375 0.101562 2.234375 -0.03125 C 1.867188 -0.175781 1.550781 -0.375 1.28125 -0.625 C 1.007812 -0.882812 0.796875 -1.179688 0.640625 -1.515625 C 0.492188 -1.847656 0.421875 -2.21875 0.421875 -2.625 C 0.421875 -3.039062 0.507812 -3.425781 0.6875 -3.78125 C 0.875 -4.132812 1.132812 -4.429688 1.46875 -4.671875 C 1.800781 -4.921875 2.195312 -5.113281 2.65625 -5.25 C 3.113281 -5.394531 3.617188 -5.46875 4.171875 -5.46875 C 4.566406 -5.46875 4.953125 -5.429688 5.328125 -5.359375 C 5.703125 -5.296875 6.035156 -5.203125 6.328125 -5.078125 L 6.328125 -5.59375 C 6.328125 -6.175781 6.160156 -6.625 5.828125 -6.9375 C 5.492188 -7.25 5.003906 -7.40625 4.359375 -7.40625 C 3.890625 -7.40625 3.429688 -7.320312 2.984375 -7.15625 C 2.535156 -6.988281 2.070312 -6.738281 1.59375 -6.40625 L 0.90625 -7.84375 C 2.039062 -8.59375 3.265625 -8.96875 4.578125 -8.96875 C 5.847656 -8.96875 6.832031 -8.65625 7.53125 -8.03125 C 8.226562 -7.40625 8.578125 -6.503906 8.578125 -5.328125 L 8.578125 -2.59375 C 8.578125 -2.351562 8.617188 -2.179688 8.703125 -2.078125 C 8.785156 -1.984375 8.925781 -1.929688 9.125 -1.921875 L 9.125 0 C 8.738281 0.0820312 8.40625 0.125 8.125 0.125 C 7.695312 0.125 7.367188 0.03125 7.140625 -0.15625 C 6.910156 -0.351562 6.769531 -0.609375 6.71875 -0.921875 L 6.65625 -1.40625 C 6.269531 -0.894531 5.796875 -0.503906 5.234375 -0.234375 C 4.671875 0.0351562 4.070312 0.171875 3.4375 0.171875 Z M 4.078125 -1.484375 C 4.453125 -1.484375 4.8125 -1.550781 5.15625 -1.6875 C 5.5 -1.820312 5.765625 -2 5.953125 -2.21875 C 6.203125 -2.40625 6.328125 -2.617188 6.328125 -2.859375 L 6.328125 -3.875 C 6.054688 -3.96875 5.765625 -4.046875 5.453125 -4.109375 C 5.140625 -4.171875 4.835938 -4.203125 4.546875 -4.203125 C 3.960938 -4.203125 3.484375 -4.070312 3.109375 -3.8125 C 2.742188 -3.550781 2.5625 -3.21875 2.5625 -2.8125 C 2.5625 -2.425781 2.707031 -2.109375 3 -1.859375 C 3.289062 -1.609375 3.648438 -1.484375 4.078125 -1.484375 Z M 4.078125 -1.484375 "/></g></g></g><g fill="#ffffff" fill-opacity="1"><g transform="translate(186.683961, 16.682732)"><g><path d="M 4.671875 0.171875 C 4.066406 0.171875 3.503906 0.0546875 2.984375 -0.171875 C 2.472656 -0.410156 2.03125 -0.738281 1.65625 -1.15625 C 1.289062 -1.570312 1.003906 -2.054688 0.796875 -2.609375 C 0.585938 -3.171875 0.484375 -3.769531 0.484375 -4.40625 C 0.484375 -5.050781 0.582031 -5.644531 0.78125 -6.1875 C 0.976562 -6.738281 1.25 -7.222656 1.59375 -7.640625 C 1.945312 -8.054688 2.363281 -8.378906 2.84375 -8.609375 C 3.320312 -8.847656 3.847656 -8.96875 4.421875 -8.96875 C 5.078125 -8.96875 5.664062 -8.8125 6.1875 -8.5 C 6.707031 -8.1875 7.113281 -7.773438 7.40625 -7.265625 L 7.40625 -12.28125 L 9.65625 -12.28125 L 9.65625 -2.59375 C 9.65625 -2.351562 9.691406 -2.179688 9.765625 -2.078125 C 9.847656 -1.984375 9.988281 -1.929688 10.1875 -1.921875 L 10.1875 0 C 9.789062 0.0820312 9.46875 0.125 9.21875 0.125 C 8.8125 0.125 8.476562 0.0234375 8.21875 -0.171875 C 7.96875 -0.378906 7.828125 -0.644531 7.796875 -0.96875 L 7.734375 -1.53125 C 7.410156 -0.96875 6.972656 -0.539062 6.421875 -0.25 C 5.867188 0.03125 5.285156 0.171875 4.671875 0.171875 Z M 5.265625 -1.75 C 5.484375 -1.75 5.703125 -1.785156 5.921875 -1.859375 C 6.148438 -1.929688 6.359375 -2.035156 6.546875 -2.171875 C 6.734375 -2.304688 6.898438 -2.460938 7.046875 -2.640625 C 7.203125 -2.816406 7.320312 -3.015625 7.40625 -3.234375 L 7.40625 -5.328125 C 7.3125 -5.578125 7.179688 -5.804688 7.015625 -6.015625 C 6.859375 -6.222656 6.675781 -6.398438 6.46875 -6.546875 C 6.257812 -6.703125 6.039062 -6.820312 5.8125 -6.90625 C 5.582031 -7 5.351562 -7.046875 5.125 -7.046875 C 4.789062 -7.046875 4.476562 -6.972656 4.1875 -6.828125 C 3.90625 -6.679688 3.660156 -6.484375 3.453125 -6.234375 C 3.253906 -5.984375 3.097656 -5.691406 2.984375 -5.359375 C 2.878906 -5.035156 2.828125 -4.703125 2.828125 -4.359375 C 2.828125 -3.984375 2.890625 -3.640625 3.015625 -3.328125 C 3.140625 -3.015625 3.304688 -2.738281 3.515625 -2.5 C 3.734375 -2.269531 3.988281 -2.085938 4.28125 -1.953125 C 4.582031 -1.816406 4.910156 -1.75 5.265625 -1.75 Z M 5.265625 -1.75 "/></g></g></g></g></g></svg>